<?xml version="1.0" standalone="no"?>
<!DOCTYPE svg PUBLIC "-//W3C//DTD SVG 20010904//EN"
 "http://www.w3.org/TR/2001/REC-SVG-20010904/DTD/svg10.dtd">
<svg version="1.0" xmlns="http://www.w3.org/2000/svg"
 width="540.000000pt" height="540.000000pt" viewBox="0 0 540.000000 540.000000"
 preserveAspectRatio="xMidYMid meet">
<metadata>
Created by potrace 1.16, written by Peter Selinger 2001-2019
</metadata><g><rect x="0" y="0" width="540" height="540" fill="#ffffff" />
<g transform="translate(0.000000,540.000000) scale(0.100000,-0.100000)"
fill="#000000" stroke="none">
<path d="M520 4355 l0 -525 525 0 525 0 0 525 0 525 -525 0 -525 0 0 -525z
m900 0 l0 -375 -375 0 -375 0 0 375 0 375 375 0 375 0 0 -375z"/>
<path d="M820 4355 l0 -225 225 0 225 0 0 225 0 225 -225 0 -225 0 0 -225z"/>
<path d="M1720 4805 l0 -75 75 0 75 0 0 -75 0 -75 75 0 75 0 0 -75 0 -75 75 0
75 0 0 150 0 150 150 0 150 0 0 75 0 75 -150 0 -150 0 0 -75 0 -75 -150 0
-150 0 0 75 0 75 -75 0 -75 0 0 -75z"/>
<path d="M2620 4805 l0 -75 75 0 75 0 0 75 0 75 -75 0 -75 0 0 -75z"/>
<path d="M2920 4730 l0 -150 -75 0 -75 0 0 -75 0 -75 75 0 75 0 0 75 0 75 150
0 150 0 0 -75 0 -75 -75 0 -75 0 0 -75 0 -75 -75 0 -75 0 0 -225 0 -225 -75 0
-75 0 0 75 0 75 -75 0 -75 0 0 -75 0 -75 -75 0 -75 0 0 150 0 150 -75 0 -75 0
0 75 0 75 150 0 150 0 0 150 0 150 -150 0 -150 0 0 -150 0 -150 -75 0 -75 0 0
-75 0 -75 -75 0 -75 0 0 75 0 75 -75 0 -75 0 0 -75 0 -75 75 0 75 0 0 -225 0
-225 -75 0 -75 0 0 150 0 150 -75 0 -75 0 0 -150 0 -150 75 0 75 0 0 -150 0
-150 75 0 75 0 0 -75 0 -75 -150 0 -150 0 0 -75 0 -75 -150 0 -150 0 0 75 0
75 75 0 75 0 0 75 0 75 75 0 75 0 0 75 0 75 -75 0 -75 0 0 75 0 75 -75 0 -75
0 0 -75 0 -75 -75 0 -75 0 0 75 0 75 -150 0 -150 0 0 -225 0 -225 75 0 75 0 0
-75 0 -75 -75 0 -75 0 0 -75 0 -75 -75 0 -75 0 0 375 0 375 -150 0 -150 0 0
-75 0 -75 75 0 75 0 0 -225 0 -225 -75 0 -75 0 0 -75 0 -75 150 0 150 0 0 -75
0 -75 -150 0 -150 0 0 -75 0 -75 225 0 225 0 0 150 0 150 75 0 75 0 0 -375 0
-375 150 0 150 0 0 -75 0 -75 -300 0 -300 0 0 75 0 75 -75 0 -75 0 0 75 0 75
150 0 150 0 0 75 0 75 -150 0 -150 0 0 -75 0 -75 -75 0 -75 0 0 -300 0 -300
150 0 150 0 0 75 0 75 300 0 300 0 0 -75 0 -75 75 0 75 0 0 75 0 75 75 0 75 0
0 -150 0 -150 75 0 75 0 0 150 0 150 -75 0 -75 0 0 150 0 150 150 0 150 0 0
-75 0 -75 150 0 150 0 0 -150 0 -150 150 0 150 0 0 -225 0 -225 -75 0 -75 0 0
-75 0 -75 -75 0 -75 0 0 -75 0 -75 75 0 75 0 0 75 0 75 150 0 150 0 0 -75 0
-75 -75 0 -75 0 0 -75 0 -75 -150 0 -150 0 0 -75 0 -75 -75 0 -75 0 0 300 0
300 -75 0 -75 0 0 75 0 75 75 0 75 0 0 75 0 75 -75 0 -75 0 0 -75 0 -75 -75 0
-75 0 0 -75 0 -75 -75 0 -75 0 0 -150 0 -150 75 0 75 0 0 75 0 75 75 0 75 0 0
-150 0 -150 -150 0 -150 0 0 -150 0 -150 75 0 75 0 0 75 0 75 150 0 150 0 0
-75 0 -75 150 0 150 0 0 75 0 75 225 0 225 0 0 75 0 75 75 0 75 0 0 150 0 150
-75 0 -75 0 0 75 0 75 -75 0 -75 0 0 75 0 75 150 0 150 0 0 -75 0 -75 75 0 75
0 0 150 0 150 75 0 75 0 0 -225 0 -225 -75 0 -75 0 0 -75 0 -75 75 0 75 0 0
75 0 75 75 0 75 0 0 -150 0 -150 150 0 150 0 0 -75 0 -75 75 0 75 0 0 -75 0
-75 75 0 75 0 0 150 0 150 75 0 75 0 0 -75 0 -75 150 0 150 0 0 75 0 75 75 0
75 0 0 -75 0 -75 75 0 75 0 0 225 0 225 -75 0 -75 0 0 75 0 75 75 0 75 0 0 75
0 75 -75 0 -75 0 0 -75 0 -75 -75 0 -75 0 0 -75 0 -75 75 0 75 0 0 -75 0 -75
-150 0 -150 0 0 -75 0 -75 -75 0 -75 0 0 75 0 75 -150 0 -150 0 0 -75 0 -75
-75 0 -75 0 0 150 0 150 300 0 300 0 0 75 0 75 -75 0 -75 0 0 75 0 75 75 0 75
0 0 150 0 150 150 0 150 0 0 75 0 75 -75 0 -75 0 0 75 0 75 -75 0 -75 0 0 75
0 75 150 0 150 0 0 -75 0 -75 75 0 75 0 0 75 0 75 -75 0 -75 0 0 75 0 75 -150
0 -150 0 0 75 0 75 75 0 75 0 0 150 0 150 75 0 75 0 0 -150 0 -150 75 0 75 0
0 375 0 375 -75 0 -75 0 0 -150 0 -150 -300 0 -300 0 0 75 0 75 150 0 150 0 0
75 0 75 75 0 75 0 0 75 0 75 75 0 75 0 0 75 0 75 75 0 75 0 0 75 0 75 -75 0
-75 0 0 -75 0 -75 -150 0 -150 0 0 -150 0 -150 -75 0 -75 0 0 150 0 150 -150
0 -150 0 0 75 0 75 -75 0 -75 0 0 -75 0 -75 75 0 75 0 0 -75 0 -75 -75 0 -75
0 0 -75 0 -75 75 0 75 0 0 -75 0 -75 -75 0 -75 0 0 -225 0 -225 -75 0 -75 0 0
75 0 75 -150 0 -150 0 0 75 0 75 75 0 75 0 0 75 0 75 75 0 75 0 0 150 0 150
-75 0 -75 0 0 150 0 150 75 0 75 0 0 300 0 300 -225 0 -225 0 0 75 0 75 75 0
75 0 0 75 0 75 75 0 75 0 0 75 0 75 75 0 75 0 0 75 0 75 -75 0 -75 0 0 -75 0
-75 -75 0 -75 0 0 75 0 75 -75 0 -75 0 0 -75 0 -75 -75 0 -75 0 0 75 0 75 -75
0 -75 0 0 -150z m450 -75 l0 -75 -75 0 -75 0 0 75 0 75 75 0 75 0 0 -75z
m-1050 -675 l0 -150 75 0 75 0 0 -75 0 -75 75 0 75 0 0 -150 0 -150 75 0 75 0
0 -75 0 -75 150 0 150 0 0 75 0 75 -75 0 -75 0 0 75 0 75 -75 0 -75 0 0 75 0
75 75 0 75 0 0 -75 0 -75 75 0 75 0 0 -75 0 -75 225 0 225 0 0 -150 0 -150
-75 0 -75 0 0 -75 0 -75 -150 0 -150 0 0 75 0 75 -150 0 -150 0 0 -75 0 -75
-150 0 -150 0 0 -75 0 -75 75 0 75 0 0 -225 0 -225 75 0 75 0 0 150 0 150 75
0 75 0 0 75 0 75 225 0 225 0 0 -75 0 -75 150 0 150 0 0 -75 0 -75 150 0 150
0 0 -75 0 -75 75 0 75 0 0 75 0 75 75 0 75 0 0 75 0 75 -75 0 -75 0 0 75 0 75
150 0 150 0 0 -150 0 -150 -75 0 -75 0 0 -75 0 -75 75 0 75 0 0 -75 0 -75 -75
0 -75 0 0 -150 0 -150 -75 0 -75 0 0 75 0 75 -75 0 -75 0 0 -75 0 -75 -75 0
-75 0 0 225 0 225 -75 0 -75 0 0 75 0 75 -225 0 -225 0 0 -150 0 -150 75 0 75
0 0 -75 0 -75 75 0 75 0 0 -225 0 -225 -75 0 -75 0 0 75 0 75 -75 0 -75 0 0
75 0 75 -75 0 -75 0 0 75 0 75 -75 0 -75 0 0 150 0 150 -75 0 -75 0 0 -150 0
-150 -75 0 -75 0 0 -75 0 -75 -75 0 -75 0 0 75 0 75 -75 0 -75 0 0 75 0 75
150 0 150 0 0 75 0 75 -225 0 -225 0 0 -75 0 -75 -75 0 -75 0 0 75 0 75 -75 0
-75 0 0 75 0 75 -225 0 -225 0 0 -75 0 -75 150 0 150 0 0 -75 0 -75 -150 0
-150 0 0 75 0 75 -75 0 -75 0 0 150 0 150 300 0 300 0 0 75 0 75 75 0 75 0 0
150 0 150 75 0 75 0 0 -75 0 -75 150 0 150 0 0 150 0 150 -75 0 -75 0 0 75 0
75 -150 0 -150 0 0 75 0 75 150 0 150 0 0 150 0 150 -75 0 -75 0 0 150 0 150
75 0 75 0 0 -150z m900 0 l0 -150 75 0 75 0 0 150 0 150 75 0 75 0 0 -225 0
-225 -75 0 -75 0 0 -75 0 -75 -75 0 -75 0 0 75 0 75 -75 0 -75 0 0 225 0 225
75 0 75 0 0 -150z m-1950 -600 l0 -150 -75 0 -75 0 0 150 0 150 75 0 75 0 0
-150z m300 75 l0 -75 -75 0 -75 0 0 75 0 75 75 0 75 0 0 -75z m2550 -150 l0
-75 -75 0 -75 0 0 75 0 75 75 0 75 0 0 -75z m-2850 -300 l0 -75 150 0 150 0 0
-75 0 -75 -150 0 -150 0 0 75 0 75 -75 0 -75 0 0 75 0 75 75 0 75 0 0 -75z
m300 -1050 l0 -75 -75 0 -75 0 0 75 0 75 75 0 75 0 0 -75z m1350 -150 l0 -75
-75 0 -75 0 0 75 0 75 75 0 75 0 0 -75z m1200 -300 l0 -225 -225 0 -225 0 0
225 0 225 225 0 225 0 0 -225z"/>
<path d="M2320 3455 l0 -75 75 0 75 0 0 75 0 75 -75 0 -75 0 0 -75z"/>
<path d="M3070 3155 l0 -75 75 0 75 0 0 75 0 75 -75 0 -75 0 0 -75z"/>
<path d="M2170 2630 l0 -150 -75 0 -75 0 0 75 0 75 -75 0 -75 0 0 -75 0 -75
75 0 75 0 0 -75 0 -75 75 0 75 0 0 75 0 75 75 0 75 0 0 75 0 75 75 0 75 0 0
75 0 75 -150 0 -150 0 0 -150z"/>
<path d="M4120 2255 l0 -75 75 0 75 0 0 75 0 75 -75 0 -75 0 0 -75z"/>
<path d="M3820 1505 l0 -75 75 0 75 0 0 75 0 75 -75 0 -75 0 0 -75z"/>
<path d="M3820 4355 l0 -525 525 0 525 0 0 525 0 525 -525 0 -525 0 0 -525z
m900 0 l0 -375 -375 0 -375 0 0 375 0 375 375 0 375 0 0 -375z"/>
<path d="M4120 4355 l0 -225 225 0 225 0 0 225 0 225 -225 0 -225 0 0 -225z"/>
<path d="M2020 1805 l0 -75 75 0 75 0 0 75 0 75 -75 0 -75 0 0 -75z"/>
<path d="M520 1055 l0 -525 525 0 525 0 0 525 0 525 -525 0 -525 0 0 -525z
m900 0 l0 -375 -375 0 -375 0 0 375 0 375 375 0 375 0 0 -375z"/>
<path d="M820 1055 l0 -225 225 0 225 0 0 225 0 225 -225 0 -225 0 0 -225z"/>
<path d="M2320 1505 l0 -75 75 0 75 0 0 75 0 75 -75 0 -75 0 0 -75z"/>
<path d="M3520 605 l0 -75 75 0 75 0 0 75 0 75 -75 0 -75 0 0 -75z"/>
</g>
</g></svg>
