<svg xmlns="http://www.w3.org/2000/svg" width="33.75" height="33.774" viewBox="0 0 33.75 33.774"><path d="M11.25,6.753V9H32.625v4.454l-2.5,7.921H10.542L7.73,1.125h-6.6v2.25H5.77L8.583,23.628h23.2l3.1-9.825V6.753ZM12.444,25.9a4.5,4.5,0,1,0,4.5,4.5A4.505,4.505,0,0,0,12.444,25.9Zm0,6.75a2.25,2.25,0,1,1,2.25-2.25A2.25,2.25,0,0,1,12.444,32.649Zm15.75-6.75a4.5,4.5,0,1,0,4.5,4.5,4.505,4.505,0,0,0-4.5-4.5Zm0,6.75a2.25,2.25,0,1,1,2.25-2.25,2.25,2.25,0,0,1-2.25,2.25Z" transform="translate(-1.125 -1.125)"/></svg>