<?xml version="1.0" encoding="UTF-8"?>
<svg id="_レイヤー_2" data-name="レイヤー_2" xmlns="http://www.w3.org/2000/svg" xmlns:xlink="http://www.w3.org/1999/xlink" viewBox="0 0 2159.59 354.73">
  <defs>
    <style>
      .cls-1 {
        fill: none;
      }

      .cls-2 {
        clip-path: url(#clippath-1);
      }

      .cls-3 {
        clip-path: url(#clippath-2);
      }

      .cls-4 {
        fill: #fff;
      }

      .cls-5 {
        fill: #de2525;
      }

      .cls-6 {
        clip-path: url(#clippath);
      }
    </style>
    <clipPath id="clippath">
      <rect class="cls-1" x="1824.98" y="71.25" width="220.21" height="220.21"/>
    </clipPath>
    <clipPath id="clippath-1">
      <rect class="cls-1" x="1517.44" y="68.88" width="225.39" height="225.39"/>
    </clipPath>
    <clipPath id="clippath-2">
      <rect class="cls-1" x="1204.33" y="68.26" width="225.39" height="225.39"/>
    </clipPath>
  </defs>
  <g id="_レイヤー_1-2" data-name="レイヤー_1">
    <g>
      <rect class="cls-5" width="2159.59" height="354.73"/>
      <g>
        <path class="cls-4" d="M1906.9,340.49h-2.19c.14-.63.25-1.31.32-2.02s.11-1.41.11-2.08v-15.04c0-.47-.02-.93-.05-1.38-.04-.45-.09-.85-.16-1.21.54.02,1.16.04,1.85.05.69.02,1.41.03,2.16.04.75,0,1.5.02,2.27.03.76,0,1.51.01,2.23.01s1.49,0,2.27-.01c.77,0,1.53-.02,2.28-.03.75,0,1.46-.02,2.13-.04.67-.02,1.28-.04,1.82-.05-.31.74-.46,1.59-.46,2.56v14.15c0,.59,0,1.12.01,1.57,0,.45.02.85.04,1.2.02.35.05.68.09.97s.09.59.15.88h-2.08v-2.51h-12.8v2.92ZM1919.69,327.64v-7.34h-12.8v7.34h12.8ZM1906.9,328.93v7.26h12.8v-7.26h-12.8Z"/>
        <path class="cls-4" d="M1939,324.02c-.67,2.45-1.78,4.76-3.33,6.94-1.56,2.18-3.55,4.23-5.98,6.16-.45-.61-1.02-1.04-1.7-1.3,1.1-.65,2.15-1.41,3.15-2.28s1.91-1.82,2.74-2.83,1.57-2.09,2.21-3.21c.65-1.12,1.19-2.28,1.62-3.47h-2.78c-.81,0-1.55,0-2.21.03-.67.02-1.27.04-1.81.05s-1.06.04-1.57.05v-1.65c.58.04,1.18.07,1.81.09.63.03,1.35.04,2.15.05.8,0,1.71.02,2.73.03,1.02,0,2.2.01,3.55.01,0-.95,0-1.75-.01-2.39,0-.64-.02-1.18-.03-1.63,0-.45-.03-.83-.05-1.13s-.06-.59-.09-.86c.36.09.71.16,1.05.2.34.05.64.07.89.07.68,0,.75.23.19.7-.14.14-.24.46-.3.94-.05.49-.08,1.23-.08,2.24v1.86c2.46,0,4.49-.01,6.07-.04,1.58-.03,2.93-.08,4.05-.15v1.65c-.97-.05-2.11-.09-3.42-.11-1.3-.02-2.92-.03-4.85-.03.94,2.45,2.2,4.63,3.79,6.55,1.59,1.92,3.55,3.46,5.87,4.63-.31.16-.61.39-.9.69-.3.3-.55.61-.77.93-1.19-.77-2.27-1.64-3.24-2.61-.97-.96-1.84-2-2.62-3.1-.78-1.11-1.45-2.26-2.03-3.46-.58-1.2-1.05-2.41-1.43-3.63h-.54v10.12c1.24-.02,2.3-.04,3.19-.08.88-.04,1.66-.1,2.35-.19v1.84c-.69-.09-1.47-.15-2.35-.19-.88-.04-1.94-.06-3.19-.08.02.86.05,1.78.09,2.75.04.97.1,1.97.18,3h-2.08c.07-1.01.13-2,.16-2.98s.06-1.9.08-2.77c-1.22.02-2.27.05-3.13.08-.86.04-1.64.1-2.32.19v-1.84c.68.09,1.46.15,2.32.19.87.04,1.91.06,3.13.08v-10.12h-.57Z"/>
        <path class="cls-4" d="M1964.19,322.48c-.52-.07-1.18-.13-1.99-.16-.8-.04-1.71-.05-2.74-.05s-1.9.02-2.63.05c-.73.04-1.38.09-1.96.16v-1.65c.58.05,1.23.1,1.96.13.73.04,1.61.05,2.63.05s1.94-.02,2.74-.05c.8-.04,1.46-.08,1.99-.13v1.65ZM1957.47,340.38h-1.65c.05-.58.09-1.19.12-1.84s.04-1.19.04-1.62v-2.21c0-.68,0-1.28-.03-1.8s-.04-.9-.08-1.15c.68.05,1.29.09,1.81.12.52.03,1.1.04,1.73.04.56,0,1.2-.02,1.93-.05.73-.04,1.39-.08,1.98-.13-.04.29-.06.66-.08,1.11-.02.45-.03,1.07-.03,1.86v1.78c0,.41.01.92.04,1.53s.06,1.16.09,1.66h-1.57v-1.4h-4.32v2.11ZM1963.46,325.94c-.25-.02-.49-.04-.71-.05-.23-.02-.48-.04-.76-.05-.28-.02-.6-.03-.96-.03h-2.61c-.37,0-.7,0-.99.03s-.55.04-.8.05c-.24.02-.49.04-.74.05v-1.51c.25.04.5.06.74.07s.51.02.8.04c.29.02.62.03.99.03h2.61c.36,0,.68,0,.96-.03.28-.02.53-.03.76-.04.22,0,.46-.03.71-.07v1.51ZM1963.46,329.77c-.49-.05-1-.09-1.55-.11s-1.29-.03-2.23-.03c-.49,0-.91,0-1.27.01-.36,0-.68.02-.97.03-.29,0-.55.02-.8.04-.24.02-.49.04-.74.05v-1.51c.23.04.47.06.72.07.24,0,.51.02.81.04s.63.03,1,.03h1.26c.94,0,1.68,0,2.23-.03s1.07-.05,1.55-.11v1.51ZM1961.79,333.2h-4.32v3.75h4.32v-3.75ZM1959.74,320.62c-.13-.43-.24-.8-.34-1.09-.1-.3-.2-.57-.31-.81-.11-.24-.23-.48-.38-.72s-.32-.5-.54-.81l1.43-.73c.2.32.37.6.5.84.13.23.26.47.38.72.12.24.23.52.35.84s.27.72.45,1.2l-1.54.57ZM1969.29,320.02c-.56,0-1.04,0-1.44.03-.41.02-.78.03-1.13.04-.35,0-.7.03-1.04.05-.34.03-.71.06-1.11.09v-1.73c.5.04.98.07,1.43.09s.93.05,1.43.07c.5.02,1.05.03,1.65.04.59,0,1.29.01,2.08.01.94,0,1.73,0,2.39-.01.66,0,1.24-.02,1.75-.04.51-.02.99-.04,1.43-.07.44-.03.91-.06,1.42-.09v1.73c-1.06-.09-2.16-.15-3.29-.18-1.13-.03-2.48-.04-4.02-.04l-.46,2.97c.59,0,1.15,0,1.66-.01.51,0,1.02-.02,1.51-.03.5,0,.99-.03,1.5-.05.5-.03,1.03-.06,1.59-.09l-.32,5.26c.58-.02,1.18-.04,1.82-.08.64-.04,1.18-.09,1.63-.16v1.78c-.27-.04-.56-.07-.88-.11-.32-.04-.75-.06-1.31-.08-.56-.02-1.28-.03-2.17-.04-.89,0-2.06-.01-3.5-.01-1.35,0-2.46,0-3.33.01-.87,0-1.6.02-2.17.04-.58.02-1.04.05-1.39.08-.35.04-.66.07-.93.11v-1.78c.27.04.57.07.9.11.33.04.68.06,1.04.08s.72.03,1.07.04.68.01.99.01l.57-3.81c-.31,0-.59,0-.85.01-.26,0-.52.02-.78.03-.26,0-.53.03-.81.05s-.59.06-.93.09v-1.65c.68.04,1.3.07,1.85.09s1.12.06,1.71.09l.46-2.97ZM1967.75,340.76h-1.86c.05-.45.1-.87.12-1.26.03-.39.04-.81.04-1.26v-5.43c0-.34-.01-.62-.04-.84-.03-.22-.06-.42-.09-.62.4,0,.75,0,1.05.01.31,0,.66.02,1.05.03.4,0,.88.01,1.44.01h3.86c.48,0,.92,0,1.34-.01.41,0,.81-.02,1.2-.03.39,0,.8-.01,1.23-.01-.05.2-.08.39-.08.58v5.98c0,.47,0,.9.03,1.28.02.39.06.81.13,1.26h-1.81v-1.65h-7.61v1.94ZM1975.37,332.77h-7.61v4.7h7.61v-4.7ZM1969.62,328.07h5.21l.19-3.83h-4.83l-.57,3.83Z"/>
      </g>
      <g>
        <path class="cls-4" d="M1604.28,336.46c0,1.17.02,2.15.05,2.93s.1,1.5.19,2.15h-2.27c.07-.65.13-1.36.18-2.15.04-.78.07-1.76.07-2.93v-4.27h-7.32v2.35h-1.89c.05-.58.1-1.18.13-1.81.04-.63.05-1.23.05-1.81v-6.48c0-.47-.02-.96-.05-1.49-.04-.52-.08-.95-.13-1.3.68.09,1.79.16,3.31.2,1.52.04,3.49.08,5.9.09v-1.94c0-.67-.02-1.32-.05-1.97-.04-.65-.1-1.23-.19-1.75.41.09.82.16,1.23.2s.73.07.99.07c.31,0,.48.07.51.22s-.09.3-.38.46c-.11.09-.19.21-.24.36-.05.15-.08.38-.08.69v3.67c2.39-.02,4.32-.05,5.79-.09s2.54-.11,3.23-.2c-.02.18-.04.41-.05.69-.02.28-.03.57-.04.88,0,.31-.02.62-.03.93,0,.31-.01.59-.01.82v5.48c0,.54.01,1.17.04,1.9.03.73.06,1.38.09,1.96h-1.86v-2.13h-7.15v4.27ZM1602.5,323.32h-7.32v7.48h7.32v-7.48ZM1604.28,330.79h7.15v-7.48h-7.15v7.48Z"/>
        <path class="cls-4" d="M1621.99,341.22h-1.7c.07-.76.12-1.49.13-2.21s.03-1.48.03-2.29v-15.07c0-.54,0-1.06-.03-1.57s-.06-1.07-.13-1.7c.23.04.55.06.95.07.4,0,.96.02,1.7.04.74.02,1.7.03,2.88.03h8.96c1.18,0,2.14,0,2.88-.03.74-.02,1.3-.03,1.69-.04.39,0,.7-.03.93-.07-.02.63-.03,1.2-.03,1.71v16.11c0,.81,0,1.58.01,2.3,0,.72.03,1.46.07,2.21h-1.65v-1.54h-16.69v2.05ZM1638.68,319.89h-16.69v17.93h16.69v-17.93ZM1630.42,332.74c-.04.29-.04.54-.03.77.02.23.04.46.08.69-.5.04-1.06.08-1.67.14-.61.05-1.24.12-1.88.19-.64.07-1.27.15-1.9.23s-1.21.18-1.75.28c-.04-.18-.06-.32-.08-.43s-.04-.21-.08-.31c-.04-.1-.08-.21-.13-.32-.05-.12-.12-.28-.19-.5.72,0,1.44-.02,2.16-.05s1.41-.09,2.08-.16c.67-.07,1.29-.15,1.86-.24.58-.09,1.09-.18,1.54-.27ZM1627.23,324.5c-.68,0-1.42.01-2.2.04s-1.49.08-2.12.15v-1.59c.63.07,1.34.12,2.12.15s1.52.04,2.2.04h3.59c-.05-.63-.1-1.17-.15-1.61-.04-.44-.08-.9-.12-1.36.31.09.58.16.84.22.25.05.52.07.81.05.22-.02.35,0,.39.07.04.06-.03.18-.23.36-.07.07-.12.18-.15.34-.03.15-.04.41-.04.77v.55c0,.19,0,.39.03.61h1.43c.7,0,1.47-.01,2.29-.04s1.54-.08,2.13-.15v1.59c-.59-.07-1.3-.12-2.13-.15s-1.59-.04-2.29-.04h-1.35c.11.95.32,2.1.65,3.43.11.4.22.78.35,1.16.12.38.26.75.4,1.11.4-.74.72-1.45.96-2.13.24-.68.45-1.47.63-2.35.47.34.98.58,1.54.73.23.07.35.16.34.26,0,.1-.11.19-.31.28-.07.04-.19.16-.35.36-.16.21-.34.55-.54,1.04-.25.63-.51,1.21-.77,1.74-.26.53-.54,1.06-.85,1.58.38.74.69,1.3.94,1.69.25.39.53.74.84,1.07.16.18.31.31.45.38s.25.05.35-.05.17-.31.22-.62c.04-.31.07-.75.07-1.32.29.32.52.54.69.66.17.12.38.22.63.31-.16.79-.35,1.4-.55,1.84-.21.43-.43.73-.66.89-.23.16-.46.22-.69.16-.23-.05-.44-.16-.63-.32-.49-.41-.94-.87-1.35-1.36-.41-.49-.8-1.1-1.16-1.82-.27.45-.51.84-.73,1.16-.22.32-.43.62-.65.88-.22.26-.44.51-.67.76-.23.24-.51.51-.84.8-.31-.25-.55-.43-.73-.53s-.42-.19-.73-.28c.74-.54,1.39-1.12,1.94-1.75.56-.63,1.12-1.43,1.7-2.4-.45-1.03-.83-2.14-1.13-3.35-.31-1.21-.53-2.53-.67-3.97h-3.73ZM1629.98,331.58c-.2-.02-.39-.03-.57-.04-.18,0-.38-.02-.61-.03-.23,0-.48-.01-.76-.01h-.99c-.76,0-1.37,0-1.84.01-.47,0-.89.03-1.27.07.04-.31.06-.75.08-1.34.02-.58.03-1.11.03-1.58s0-.98-.03-1.53c-.02-.55-.04-.98-.08-1.28.38.04.8.06,1.27.07.47,0,1.08.01,1.84.01h.99c.28,0,.53,0,.76-.01.22,0,.43-.02.61-.03.18,0,.37-.02.57-.04-.04.38-.06.8-.08,1.27-.02.47-.03.98-.03,1.54s0,1.08.03,1.62c.02.54.04.97.08,1.3ZM1628.58,327.04h-3.24v3.29h3.24v-3.29ZM1635.84,323.07c-.22-.25-.4-.47-.55-.66s-.31-.36-.47-.53c-.16-.16-.33-.32-.51-.49s-.4-.35-.65-.57l.92-.81c.29.25.53.47.73.65.2.18.38.35.54.51s.31.32.45.49c.14.16.28.34.45.54l-.89.86Z"/>
        <path class="cls-4" d="M1657.44,327.39c-.27,1.08-.7,2.2-1.3,3.36-.59,1.16-1.35,2.32-2.28,3.48-.93,1.16-2.02,2.3-3.27,3.42-1.25,1.12-2.68,2.17-4.28,3.16-.14-.38-.33-.68-.55-.9s-.54-.44-.93-.63c1.57-.74,3.01-1.62,4.35-2.63,1.33-1.02,2.49-2.15,3.48-3.4.99-1.25,1.79-2.61,2.4-4.06.61-1.46.99-3.01,1.13-4.67.07-.83.13-1.53.17-2.12.04-.58.07-1.13.08-1.63,0-.5,0-1.03-.05-1.57s-.11-1.19-.2-1.94c.77.18,1.53.25,2.27.22.22,0,.34.07.38.22.04.14-.04.28-.22.41-.11.09-.18.24-.22.45-.04.21-.06.49-.08.85-.02.27-.04.61-.07,1.01-.03.4-.06.84-.11,1.3s-.09.94-.13,1.44c-.04.5-.09,1-.15,1.48.31.97.69,1.94,1.16,2.9.47.96.99,1.89,1.55,2.77.57.88,1.17,1.72,1.82,2.52.65.8,1.3,1.53,1.97,2.17.61.59,1.15,1.1,1.62,1.51.47.41.9.77,1.31,1.07s.8.55,1.19.77c.39.22.81.41,1.26.59-.63.36-1.17.93-1.62,1.7-.47-.32-.91-.65-1.34-.99-.42-.33-.85-.69-1.27-1.07-.42-.38-.85-.79-1.28-1.23-.43-.44-.89-.93-1.38-1.47-1.28-1.4-2.36-2.81-3.25-4.23-.89-1.41-1.62-2.83-2.17-4.25Z"/>
      </g>
      <g>
        <path class="cls-4" d="M1272.21,317.62h11.12v1.92h-9.18v6.05h9.1v1.89h-9.1v7.61h9.1v1.92h-11.04v-19.39Z"/>
        <path class="cls-4" d="M1286.36,322.67h1.86v2.56c1.48-1.96,3.27-2.94,5.37-2.94,1.08,0,2.05.29,2.92.88.86.58,1.48,1.35,1.84,2.29.36.95.54,2.34.54,4.17v7.37h-1.84v-6.83c0-1.67-.08-2.81-.23-3.4-.15-.59-.39-1.1-.7-1.51-.32-.41-.72-.73-1.2-.94-.49-.22-1.08-.32-1.77-.32s-1.37.17-2.04.51c-.67.34-1.23.82-1.7,1.43-.47.61-.78,1.24-.94,1.89-.16.65-.24,1.95-.24,3.92v5.26h-1.86v-14.34Z"/>
        <path class="cls-4" d="M1315.38,322.67h1.86v11.07c0,1.96-.17,3.4-.51,4.32-.34.92-.84,1.68-1.49,2.29-.65.61-1.43,1.08-2.35,1.4-.92.32-1.93.49-3.02.49-3.74,0-6.21-1.49-7.4-4.48h2c1.04,1.87,2.82,2.81,5.32,2.81,1.21,0,2.25-.23,3.15-.7.89-.47,1.52-1.07,1.89-1.8.37-.73.55-1.87.55-3.42v-.62c-.74.92-1.61,1.6-2.62,2.05-1.01.45-2.07.68-3.19.68-2.09,0-3.83-.71-5.21-2.13-1.39-1.42-2.08-3.1-2.08-5.02s.74-3.72,2.21-5.16,3.26-2.16,5.36-2.16,3.94.95,5.52,2.86v-2.48ZM1315.46,329.61c0-1.57-.53-2.88-1.59-3.94-1.06-1.06-2.38-1.59-3.94-1.59-1.66,0-3.03.57-4.13,1.71s-1.65,2.45-1.65,3.93.53,2.73,1.59,3.77c1.06,1.04,2.42,1.55,4.08,1.55s3.01-.5,4.06-1.51c1.05-1.01,1.58-2.31,1.58-3.92Z"/>
        <path class="cls-4" d="M1320.73,317.13h1.84v19.87h-1.84v-19.87Z"/>
        <path class="cls-4" d="M1325.54,318.67c0-.41.15-.77.45-1.08.3-.31.66-.46,1.08-.46s.78.15,1.08.45.45.66.45,1.08-.15.78-.45,1.08c-.3.3-.66.45-1.08.45s-.78-.15-1.08-.46-.45-.66-.45-1.05ZM1326.13,322.67h1.86v14.34h-1.86v-14.34Z"/>
        <path class="cls-4" d="M1339.01,324.23l-1.19,1.22c-.99-.95-1.95-1.43-2.89-1.43-.61,0-1.12.19-1.54.58s-.62.86-.62,1.43.22,1.05.66,1.46c.44.41,1.2.89,2.28,1.46,1.08.57,1.9,1.18,2.47,1.84.57.66.85,1.46.85,2.42,0,1.21-.42,2.22-1.26,3.05-.84.83-1.87,1.24-3.09,1.24-.81,0-1.59-.18-2.33-.54-.75-.36-1.38-.86-1.9-1.51l1.16-1.3c.95,1.06,1.95,1.59,3,1.59.74,0,1.37-.24,1.89-.73.52-.49.78-1.06.78-1.71s-.23-1.2-.69-1.62c-.46-.42-1.22-.9-2.3-1.44-1.07-.54-1.87-1.13-2.4-1.77-.53-.64-.8-1.47-.8-2.48s.37-1.89,1.12-2.61c.75-.72,1.74-1.08,2.97-1.08s2.51.65,3.82,1.94Z"/>
        <path class="cls-4" d="M1342.28,317.13h1.86v8.1c1.48-1.96,3.27-2.94,5.37-2.94,1.08,0,2.05.29,2.92.88.86.58,1.48,1.35,1.84,2.29.36.95.54,2.34.54,4.17v7.37h-1.86v-6.83c0-1.48-.04-2.49-.13-3.05-.09-.56-.29-1.09-.59-1.59-.31-.5-.71-.89-1.23-1.15-.51-.26-1.13-.39-1.86-.39s-1.43.17-2.09.51c-.67.34-1.23.82-1.7,1.43-.47.61-.78,1.24-.94,1.89-.16.65-.24,1.95-.24,3.92v5.26h-1.86v-19.87Z"/>
      </g>
      <g>
        <path class="cls-4" d="M134.63,59.69c6.44,3.19,12.95,7.26,18.72,11.4,3.12-5.29,6.65-12.41,9.43-21.37l9.5,2.92c-2.44,6.38-5.63,14.51-11.67,23.94,1.29.95,6.44,5.09,14.24,12.82l-7.33,7.8c-1.9-2.17-5.83-6.71-12.68-12.68-4.82,6.1-13.97,15.19-29.5,22.31l-5.63-7.33c6.04-2.65,18.38-8,28.28-20.62-7.53-5.63-11.73-8.41-18.99-12.41l5.63-6.78Z"/>
        <path class="cls-4" d="M242.06,91.64v8.95h-56.84v-8.95h56.84ZM236.84,55.96v8.95h-46.53v-8.95h46.53Z"/>
        <path class="cls-4" d="M299.84,96.05v8h-48.36v-8h27.54c1.49-8.41,2.17-13.29,2.71-23.06h-24.15v-8h33.37c-.54,14.58-2.58,27.2-3.19,31.06h12.07Z"/>
        <path class="cls-4" d="M367.05,73.53v9.43h-58.19v-9.43h58.19Z"/>
        <path class="cls-4" d="M374.5,73.05h62.53v8.95h-62.53v-8.95Z"/>
        <path class="cls-4" d="M505.87,97.47c-1.36,9.7-2.64,11.6-6.92,11.6h-16.35c-2.24,0-5.77-.2-5.77-4v-7.46h-7.94c-3.12,6.44-7.87,11.26-25.16,12.75l-2.58-7.6c13.84-.07,16.96-3.53,18.38-5.15h-11.67v-24.01h51.48v21.91l6.51,1.97ZM474.13,47.76v4.75h-9.83v2.58h8v9.5h-8v2.44h10.65v4.61h-31.74v-23.87h30.93ZM457.24,52.5h-6.78v2.58h6.78v-2.58ZM465.18,58.47h-14.72v2.71h14.72v-2.71ZM457.24,64.51h-6.78v2.51h6.78v-2.51ZM490.82,78.01h-34.18v2.44h34.18v-2.44ZM490.82,84.04h-34.18v2.58h34.18v-2.58ZM490.82,90.28h-34.18v2.71h34.18v-2.71ZM472.71,59.01c5.97-4.88,8.21-9.9,9.36-13.02l8.48.54c-.47,1.36-.81,2.37-1.49,3.87h16.48v7.39h-20.96c-1.9,2.31-3.39,4.07-6.85,6.99l-5.02-5.77ZM503.57,70.27h-23.47v-7.12h23.47v7.12ZM496.18,102.15c1.49,0,1.49-.48,1.83-4.54h-12.68v3.46c0,1.02.54,1.09,1.15,1.09h9.7Z"/>
        <path class="cls-4" d="M524.72,50.4c-1.02,4.88-2.85,13.9-2.85,29.64,0,14.72,1.49,22.11,2.17,25.5l-9.02,1.02c-.61-3.59-1.9-11.26-1.9-26.38,0-10.45.61-20.08,2.37-30.45l9.22.68ZM568.81,60.64v8.55h-11.6l.07,15.67c5.63,2.58,10.85,6.85,13.16,9.29l-5.63,7.94c-2.65-3.26-4.61-4.82-8-7.33l-.07,1.42c-.41,8.55-7.53,10.44-13.57,10.44-10.65,0-15.26-6.24-15.26-12.55,0-7.12,5.9-12.41,15.19-12.41,2.51,0,4.07.34,5.29.61l-.14-13.09h-18.99v-8.55h18.79l-.07-10.58h9.16v10.58h11.67ZM548.53,90.21c-1.22-.47-2.78-1.15-5.43-1.15-3.46,0-7.39,1.36-7.39,5.15,0,3.12,2.71,4.95,6.92,4.95,5.16,0,5.9-2.78,5.9-5.49v-3.46Z"/>
        <path class="cls-4" d="M591.66,81.13c-2.51,3.19-2.85,5.97-2.85,7.53,0,8.14,12.07,8.14,17.63,8.14,12.34,0,19.47-.75,23.74-1.15l.14,9.22c-3.26.2-10.24.75-20.42.75-10.99,0-30.39,0-30.39-16.01,0-4.75,1.7-8.34,4.68-12.55l7.46,4.07ZM626.59,61.19c-6.31.61-15.74,3.93-22.79,8.41l-6.78-4.61c3.39-2.03,4.95-2.71,8.34-4.07-3.59.14-19.33.41-22.59.61v-8.89c11.19.14,40.76,0,43.82-.07v8.61Z"/>
        <path class="cls-4" d="M696.71,56.3v8.48h-33.64c-.75,4.68-1.15,6.44-2.31,9.9,4.48-2.31,9.36-4,15.46-4,14.24,0,18.92,8.95,18.92,16.89,0,7.19-3.73,12.89-8.82,15.46-5.43,2.71-11.67,3.87-25.37,3.87-4.07,0-6.04-.14-8.48-.2l-1.97-8.68c1.56.14,5.36.54,12.14.54,11.73,0,22.86-.75,22.86-10.78,0-7.32-5.9-8.88-10.58-8.88-4.21,0-11.39,1.02-16.68,6.58-.75,1.49-.88,1.9-1.15,2.65l-9.43-2.65c2.65-5.49,4.82-12.95,6.1-20.69h-13.5v-8.48h14.51c.2-2.51.27-4,.34-7.12l9.83.07c-.27,2.92-.34,3.39-.75,7.05h32.49Z"/>
        <path class="cls-4" d="M719.77,60.51c-1.22,4.54-1.63,7.8-1.83,16.07,6.51-4.41,13.29-6.71,21.09-6.71,15.6,0,18.79,10.65,18.79,16.62,0,15.19-12.95,20.21-31.61,20.21-6.24,0-10.24-.41-12.62-.68l-1.08-8.75c3.12.41,7.8,1.02,13.5,1.02,17.57,0,22.38-5.29,22.38-12.14,0-4.88-3.8-8.27-10.38-8.27-7.8,0-15.87,3.26-20.08,8.34-.07.81-.14,1.08-.2,1.7l-8.89-.34c.2-15.87.34-19.4,1.76-27.94l9.16.88ZM747.24,62c-1.9-.75-10.72-4.34-28.62-5.29l1.56-8.41c13.84.47,21.84,2.03,29.3,4.27l-2.24,9.43Z"/>
        <path class="cls-4" d="M766.36,102.76c6.04-10.65,10.04-25.98,11.46-33.78l-9.77.07v-8.61h11.19c.61-4.34.88-6.92,1.22-11.8l9.5.47c-.47,3.66-.68,5.36-1.63,11.33h6.1c10.04,0,14.79,4.61,14.79,19.06,0,4.95-.68,14.38-3.26,20.21-2.31,5.15-6.58,6.99-12.55,6.99-3.66,0-6.44-.34-7.46-.47l-.54-9.09c1.22.27,4,.81,6.78.81,4.48,0,5.43-2.03,6.44-5.7.95-3.53,1.76-8.95,1.76-13.77,0-7.73-1.76-9.7-8.48-9.63l-5.15.07c-1.9,10.58-5.97,26.86-11.67,37.91l-8.75-4.07ZM817.63,86.28c-.34-9.83-2.71-19.67-8.61-27.54l7.67-3.8c6.92,8.27,9.63,18.99,10.38,29.71l-9.43,1.63Z"/>
        <path class="cls-4" d="M847.06,60.51c-1.22,4.54-1.63,7.8-1.83,16.07,6.51-4.41,13.29-6.71,21.09-6.71,15.6,0,18.79,10.65,18.79,16.62,0,15.19-12.95,20.21-31.61,20.21-6.24,0-10.24-.41-12.62-.68l-1.08-8.75c3.12.41,7.8,1.02,13.5,1.02,17.57,0,22.38-5.29,22.38-12.14,0-4.88-3.8-8.27-10.38-8.27-7.8,0-15.87,3.26-20.08,8.34-.07.81-.14,1.08-.2,1.7l-8.89-.34c.2-15.87.34-19.4,1.76-27.94l9.16.88ZM874.53,62c-1.9-.75-10.72-4.34-28.62-5.29l1.56-8.41c13.84.47,21.84,2.03,29.3,4.27l-2.24,9.43Z"/>
      </g>
      <rect class="cls-4" x="1192.71" y="54.44" width="250.99" height="250.99"/>
      <rect class="cls-4" x="1503.64" y="54.44" width="250.99" height="250.99"/>
      <rect class="cls-4" x="1809.83" y="54.44" width="250.99" height="250.99"/>
      <g>
        <rect class="cls-4" x="958.24" y="158.83" width="108.28" height="49.5"/>
        <polygon class="cls-4" points="1116.02 183.58 1030.95 248.55 1030.95 118.61 1116.02 183.58"/>
      </g>
      <g>
        <path class="cls-4" d="M127.28,177.8c0-16.43,10.96-25.19,24.8-25.19,5.77,0,9.67,1.21,13.78,3.58l-.13,11.19h-3.46l-2.95-11.44c-1.79-.64-3.65-.96-5.77-.96-9.55,0-16.72,7.35-16.72,22.5s7.18,22.44,16.79,22.44c2.24,0,4.23-.32,6.21-1.15l2.88-11.19h3.52l.13,11.06c-4.04,2.37-8.59,3.71-14.29,3.71-14.16,0-24.8-8.31-24.8-24.55Z"/>
        <path class="cls-4" d="M171.36,201.14v-1.92l4.87-.45.13-12.66v-32.8l-5-.32v-1.73l12.94-2.49.96.58-.26,10.17v26.6c0,4.03.06,8.63.19,12.72l4.81.38v1.92h-18.64Z"/>
        <path class="cls-4" d="M194.43,201.14v-1.92l4.61-.45.13-12.66v-4.67c0-4.28-.06-7.03-.19-10.1l-5.06-.45v-1.53l13.26-3.39.83.51-.26,9.85v9.78c0,3.52.06,9.01.13,12.72l4.29.38v1.92h-17.75ZM198.27,154.53c0-2.62,2.18-4.6,4.87-4.6s4.87,1.98,4.87,4.6c0,2.81-2.18,4.73-4.87,4.73s-4.87-1.92-4.87-4.73Z"/>
        <path class="cls-4" d="M216.85,184.52c0-12.15,8.52-18.67,18.52-18.67,6.6,0,11.73,4.09,12.75,9.59-.58,2.05-1.86,2.94-3.78,2.94-2.37,0-4.17-1.28-4.42-5.18l-.96-4.86c-.83-.26-1.67-.32-2.56-.32-6.02,0-10.44,5.69-10.44,15.34s4.61,14.71,11.72,14.71c3.78,0,6.86-1.66,9.29-4.67l1.15.83c-3.08,5.37-7.24,7.93-14.1,7.93-9.61,0-17.17-6.33-17.17-17.65Z"/>
        <path class="cls-4" d="M272.53,166.87h16.34v1.92l-6.28.58-8.07,7.54,11.73,21.93,4.42.38v1.92h-12.49l-9.67-18.67-3.52,3.32c0,3.71.06,9.4.13,13.04l4.42.38v1.92h-18v-1.92l4.68-.45.13-12.66v-32.8l-5-.32v-1.73l12.94-2.49.96.58-.26,10.17v23.59l6.21-6.14,7.62-7.42-6.28-.77v-1.92Z"/>
        <path class="cls-4" d="M331.47,201.14v-1.92l4.49-.45c.06-3.58.13-8.95.13-12.66v-8.63c0-5.37-1.99-7.29-5.13-7.29-2.31,0-5.19,1.28-8.26,4.22v11.7c0,3.58.06,9.08.13,12.72l4.04.38v1.92h-17.56v-1.92l4.61-.45.13-12.66v-32.8l-5-.32v-1.73l12.81-2.49.83.58-.19,10.17v12.91c3.97-4.6,7.62-6.59,12.3-6.59,6.02,0,9.93,3.64,9.93,12.34v7.93l.13,12.72,4.23.38v1.92h-17.62Z"/>
        <path class="cls-4" d="M353.44,183.94c0-11.51,8.14-18.09,17.24-18.09s14.48,6.2,14.48,14.13c0,1.6-.13,2.75-.38,3.9h-22.23c.26,10.04,5.06,14.19,11.47,14.19,4.55,0,7.56-1.79,9.8-4.79l1.15.83c-2.69,5.18-7.5,8.06-13.84,8.06-10.38,0-17.68-6.39-17.68-18.22ZM373.5,181.64c2.75,0,3.52-1.34,3.52-4.79,0-5.63-2.56-8.82-6.66-8.82s-7.5,4.22-7.82,13.62h10.96Z"/>
        <path class="cls-4" d="M389.77,201.14v-1.92l4.68-.45c.06-3.71.13-9.14.13-12.66v-4.8c0-4.28-.06-6.71-.26-9.85l-5-.45v-1.53l12.56-3.52.83.51.51,8.89c2.05-6.07,6.34-9.53,10.32-9.53,2.82,0,5.19,1.15,5.83,4.28-.13,2.75-1.41,4.67-4.29,4.67-2.11,0-3.52-1.28-5.13-3.32l-.51-.58c-2.82,1.92-4.74,4.79-6.21,9.59v5.63l.13,12.53,5.96.58v1.92h-19.54Z"/>
        <path class="cls-4" d="M420.97,183.94c0-11.51,8.14-18.09,17.24-18.09s14.48,6.2,14.48,14.13c0,1.6-.13,2.75-.38,3.9h-22.23c.26,10.04,5.06,14.19,11.47,14.19,4.55,0,7.56-1.79,9.8-4.79l1.15.83c-2.69,5.18-7.5,8.06-13.84,8.06-10.38,0-17.68-6.39-17.68-18.22ZM441.02,181.64c2.75,0,3.52-1.34,3.52-4.79,0-5.63-2.56-8.82-6.66-8.82s-7.5,4.22-7.82,13.62h10.96Z"/>
        <path class="cls-4" d="M473.25,201.14v-1.92l4.87-.45c.06-4.22.13-8.44.13-12.66v-16.69h-5.38v-2.05l5.51-.58c.71-7.61,2.82-11.83,5.96-14.58,3.27-3,6.86-4.16,10.57-4.16s6.86,1.21,7.62,4.28c-.06,2.17-1.54,3.77-4.16,3.77-2.18,0-3.97-1.15-5.64-4.16l-1.09-1.73c-1.03.58-1.92,1.41-2.5,2.24-2.05,3.2-2.56,7.48-2.31,14.39h8.84v2.56h-8.78v16.69c0,4.16.06,8.38.19,12.59l6.09.51v1.92h-19.93Z"/>
        <path class="cls-4" d="M498.43,183.88c0-11.38,7.95-18.03,17.36-18.03s17.43,6.59,17.43,18.03-7.3,18.29-17.43,18.29-17.36-6.9-17.36-18.29ZM523.99,184.01c0-10.81-3.01-15.98-8.2-15.98s-8.2,5.18-8.2,15.98,3.01,16.05,8.2,16.05,8.2-5.31,8.2-16.05Z"/>
        <path class="cls-4" d="M538.02,201.14v-1.92l4.68-.45c.06-3.71.13-9.14.13-12.66v-4.8c0-4.28-.06-6.71-.26-9.85l-5-.45v-1.53l12.56-3.52.83.51.51,8.89c2.05-6.07,6.34-9.53,10.32-9.53,2.82,0,5.19,1.15,5.83,4.28-.13,2.75-1.41,4.67-4.29,4.67-2.11,0-3.52-1.28-5.13-3.32l-.51-.58c-2.82,1.92-4.74,4.79-6.21,9.59v5.63l.13,12.53,5.96.58v1.92h-19.54Z"/>
        <path class="cls-4" d="M629.32,201.14v-1.92l4.29-.45.13-12.66v-8.12c0-5.95-1.67-7.74-4.93-7.74-2.56,0-5.25,1.34-8.2,4.28.19,1.09.26,2.24.26,3.52v8.06c0,3.71.06,9.08.19,12.72l4.1.38v1.92h-17.36v-1.92l4.55-.45c.06-3.64.13-8.95.13-12.66v-8.12c0-5.63-1.67-7.74-4.87-7.74-2.5,0-5.32,1.53-8.07,4.35v11.51l.13,12.72,4.1.38v1.92h-17.62v-1.92l4.61-.45c.06-3.64.13-9.14.13-12.66v-4.86c0-4.22,0-6.65-.26-9.78l-5-.45v-1.53l12.56-3.52.83.51.45,5.82c3.4-4.16,7.18-6.46,11.72-6.46s7.75,2.11,9.03,6.71c3.65-4.73,7.5-6.71,12.05-6.71,6.73,0,10,3.84,10,12.47v7.8l.13,12.72,4.17.38v1.92h-17.24Z"/>
        <path class="cls-4" d="M650.97,183.94c0-11.51,8.14-18.09,17.24-18.09s14.48,6.2,14.48,14.13c0,1.6-.13,2.75-.38,3.9h-22.23c.26,10.04,5.06,14.19,11.47,14.19,4.55,0,7.56-1.79,9.8-4.79l1.15.83c-2.69,5.18-7.5,8.06-13.84,8.06-10.38,0-17.68-6.39-17.68-18.22ZM671.03,181.64c2.75,0,3.52-1.34,3.52-4.79,0-5.63-2.56-8.82-6.66-8.82s-7.5,4.22-7.82,13.62h10.96Z"/>
        <path class="cls-4" d="M709.47,201.14v-1.92l4.49-.45.13-12.66v-8.63c0-5.37-1.67-7.29-4.93-7.29-2.18,0-5.19,1.28-8.39,4.28v11.64l.13,12.72,4.1.38v1.92h-17.62v-1.92l4.61-.45c.06-3.64.13-9.14.13-12.66v-4.8c0-4.22-.06-6.71-.26-9.85l-5-.45v-1.53l12.56-3.52.83.51.38,5.88c4.29-4.86,8.07-6.52,12.3-6.52,5.89,0,9.74,3.77,9.74,12.21v8.06c0,3.71.06,9.08.19,12.72l4.23.38v1.92h-17.62Z"/>
        <path class="cls-4" d="M757.07,195.64c-3.08,3.9-7.05,6.52-11.98,6.52-6.34,0-10.12-3.39-10.06-13.04l.19-18.73-4.74-.83v-1.66l12.81-1.6.77.64-.32,9.33v13.49c0,5.69,2.05,7.54,5.57,7.54,2.82,0,5.45-1.47,7.69-3.84l.26-23.14-4.61-.7v-1.53l12.62-1.79.71.64-.26,9.33v22.63l4.36.45v1.85l-12.69.7-.32-6.27Z"/>
        <path class="cls-4" d="M790.32,201.14v-1.92l4.87-.45.13-12.66v-32.8l-5-.32v-1.73l12.94-2.49.96.58-.26,10.17v26.6c0,4.03.06,8.63.19,12.72l4.81.38v1.92h-18.64Z"/>
        <path class="cls-4" d="M813.39,201.14v-1.92l4.61-.45.13-12.66v-4.67c0-4.28-.06-7.03-.19-10.1l-5.06-.45v-1.53l13.26-3.39.83.51-.26,9.85v9.78c0,3.52.06,9.01.13,12.72l4.29.38v1.92h-17.75ZM817.23,154.53c0-2.62,2.18-4.6,4.87-4.6s4.87,1.98,4.87,4.6c0,2.81-2.18,4.73-4.87,4.73s-4.87-1.92-4.87-4.73Z"/>
        <path class="cls-4" d="M836.13,199.22l.32-8.31h3.65l1.73,7.86c1.73.7,3.46,1.09,5.7,1.09,5.13,0,7.88-1.98,7.88-5.56,0-2.81-1.35-4.73-6.47-6.27l-3.59-1.21c-5.57-1.73-8.97-4.92-8.97-10.1,0-6.27,4.93-10.87,13.78-10.87,4.16,0,7.24,1.02,10.83,2.88l-.38,7.61h-3.27l-1.99-7.03c-1.6-.77-3.08-1.15-5-1.15-4.29,0-6.86,2.11-6.86,5.37,0,2.56,1.47,4.41,6.41,5.95l3.59,1.15c6.66,2.11,9.42,5.43,9.42,10.42,0,6.78-5.38,11.12-14.8,11.12-4.68,0-8.33-1.02-11.98-2.94Z"/>
        <path class="cls-4" d="M871.62,192.7c0-2.37.06-4.03.06-6.58v-16.69h-5.57v-2.05l6.02-.58,2.75-10.17h5.57l-.13,10.23h8.33v2.56h-8.33v23.78c0,3.64,1.6,5.18,4.23,5.18,1.73,0,2.88-.58,4.61-1.92l.96,1.09c-1.86,3-4.81,4.6-9.23,4.6-6.15,0-9.29-2.88-9.29-9.46Z"/>
      </g>
      <g>
        <path class="cls-4" d="M139.39,257.22c-1.08,0-2.04.01-2.88.04-.84.02-1.62.06-2.32.11-.7.05-1.37.12-2,.21-.63.09-1.3.19-2,.28v-4.85c.7.14,1.37.25,2,.32s1.3.13,2,.18c.7.05,1.48.08,2.32.11.84.02,1.8.04,2.88.04-.05-3.66-.15-6.68-.32-9.07-.16-2.39-.36-4.1-.6-5.13,1.08.24,2.03.4,2.85.49.82.09,1.6.12,2.35.07,1.12-.05,1.72.11,1.79.46.07.35-.36.93-1.3,1.72-.24.19-.39.59-.46,1.2-.07.61-.11,1.69-.11,3.23v7.03c1.45-.05,2.66-.11,3.62-.18.96-.07,1.98-.22,3.06-.46v4.85c-1.08-.19-2.1-.32-3.06-.39-.96-.07-2.17-.13-3.62-.18v13.64c.98-.52,1.99-1.04,3.02-1.58,1.03-.54,2.11-1.14,3.23-1.79.09.8.25,1.45.46,1.97.21.52.5,1.15.88,1.9-1.22.56-2.46,1.16-3.73,1.79-1.26.63-2.55,1.28-3.87,1.93v20.17c0,1.36-.15,2.48-.46,3.37-.31.89-.86,1.62-1.65,2.18-.8.56-1.89.96-3.27,1.19-1.38.23-3.13.37-5.24.42,0-.89-.15-1.82-.46-2.78-.31-.96-.81-1.91-1.51-2.85,1.83.37,3.29.61,4.39.7,1.1.09,1.94.02,2.53-.21.58-.24.97-.64,1.16-1.23.19-.58.28-1.35.28-2.28v-16.38c-2.77,1.55-5.32,3-7.66,4.36-.28-1.08-.61-1.98-.98-2.71-.38-.73-.91-1.51-1.62-2.35,2.01-.7,3.85-1.36,5.52-1.97,1.66-.61,3.24-1.24,4.74-1.9v-15.67ZM161.82,272.68c-2.11.05-3.98.11-5.62.18-1.64.07-3.02.18-4.15.32v-4.36c2.44.28,6.14.42,11.11.42.8-2.15,1.48-4.33,2.04-6.54.56-2.2,1.01-4.4,1.34-6.61,1.64.94,3.37,1.5,5.2,1.69.89.14,1.35.35,1.37.63.02.28-.32.68-1.02,1.19-.66.47-1.21,1.16-1.65,2.07-.45.91-.9,1.98-1.37,3.2-.28.8-.56,1.56-.84,2.28-.28.73-.56,1.42-.84,2.07h14.76c1.64,0,3.38-.05,5.24-.14,1.85-.09,3.48-.19,4.88-.28v4.36c-1.03-.14-2.18-.25-3.44-.32-1.26-.07-2.51-.11-3.72-.11-.94,3.7-2.06,6.97-3.37,9.81-1.31,2.84-2.95,5.35-4.92,7.56,2.25,1.03,4.6,2.16,7.06,3.37,2.46,1.22,5.1,2.53,7.91,3.94-.7.75-1.28,1.45-1.72,2.11-.45.66-.9,1.45-1.37,2.39-2.67-1.69-5.23-3.25-7.66-4.67-2.44-1.43-4.87-2.8-7.31-4.11-2.53,2.11-5.54,3.92-9.03,5.45-3.49,1.52-7.67,2.87-12.55,4.04-.38-1.08-.89-2.03-1.55-2.85-.66-.82-1.43-1.51-2.32-2.07,4.73-.61,8.83-1.45,12.3-2.53,3.47-1.08,6.47-2.46,9-4.15-2.34-1.17-4.69-2.28-7.03-3.34-2.34-1.05-4.78-2.07-7.31-3.06,2.48-3.42,4.68-7.4,6.61-11.95ZM170.25,249.84c-.56-1.22-1.24-2.46-2.04-3.73s-1.83-2.65-3.09-4.15l4.36-2.11c1.22,1.78,2.21,3.41,2.99,4.89s1.51,3.17,2.21,5.1c2.25,0,4.23-.01,5.94-.04,1.71-.02,3.22-.05,4.53-.07,1.31-.02,2.44-.06,3.37-.11.94-.05,1.76-.12,2.46-.21v12.3h-4.22v-8.22h-30.79v8.65h-4.08v-12.72c1.5.14,3.73.25,6.68.32s6.84.11,11.67.11ZM165.96,272.68c-.89,2.02-1.73,3.85-2.53,5.52-.8,1.66-1.62,3.27-2.46,4.81,1.69.66,3.51,1.43,5.48,2.32,1.97.89,4.1,1.87,6.4,2.95,1.92-1.92,3.51-4.16,4.78-6.71,1.27-2.55,2.32-5.52,3.16-8.89h-14.83Z"/>
        <path class="cls-4" d="M261.91,269.94c-2.58-.14-4.81-.25-6.71-.32-1.9-.07-3.87-.13-5.9-.18-2.04-.05-4.37-.08-6.99-.11-2.62-.02-5.95-.04-9.98-.04-4.59,0-8.42.01-11.49.04-3.07.02-5.74.05-8.01.07-2.27.02-4.38.08-6.33.18-1.94.09-4.09.21-6.43.35v-4.99c2.25.14,4.36.25,6.33.32,1.97.07,4.14.12,6.5.14,2.37.02,5.08.05,8.15.07,3.07.02,6.83.04,11.28.04h7.13c2.04,0,3.87-.01,5.48-.04,1.62-.02,3.08-.05,4.39-.07,1.31-.02,2.61-.06,3.9-.1,1.29-.05,2.62-.09,4.01-.14,1.38-.05,2.94-.12,4.67-.21v4.99Z"/>
        <path class="cls-4" d="M297.33,249.49c-3.47,0-6.51.01-9.14.04-2.62.02-4.93.06-6.92.11-1.99.05-3.73.11-5.2.18-1.48.07-2.85.15-4.11.25v-4.57c1.41.09,2.93.18,4.57.25s3.57.13,5.8.18c2.23.05,4.86.08,7.91.11,3.04.02,6.7.04,10.96.04s7.64-.01,10.68-.04c3.05-.02,5.72-.06,8.01-.11,2.29-.05,4.3-.11,6.01-.18,1.71-.07,3.27-.15,4.67-.25v4.57c-1.31-.09-2.78-.18-4.39-.25-1.62-.07-3.55-.13-5.8-.18-2.25-.05-4.9-.08-7.94-.11-3.05-.02-6.61-.04-10.68-.04v41.54c0,2.02.05,4.01.14,5.97.09,1.97.26,4.01.49,6.12h-5.69c.23-2.11.4-4.11.49-6.01.09-1.9.14-3.92.14-6.08v-41.54ZM324.18,281.96c-1.31-1.64-2.6-3.19-3.87-4.64-1.26-1.45-2.59-2.89-3.97-4.32-1.38-1.43-2.86-2.89-4.43-4.39-1.57-1.5-3.34-3.14-5.31-4.92l2.6-2.67c2.06,1.83,3.95,3.53,5.66,5.1,1.71,1.57,3.31,3.07,4.82,4.5,1.5,1.43,2.92,2.82,4.25,4.18,1.34,1.36,2.66,2.74,3.97,4.15l-3.73,3.02Z"/>
        <path class="cls-4" d="M364.04,262c2.58,0,4.67-.02,6.29-.07,1.62-.05,2.96-.19,4.04-.42v4.71c-1.08-.19-2.46-.32-4.15-.39-1.69-.07-3.75-.11-6.18-.11v25.52c1.92-.47,3.77-.95,5.55-1.44,1.78-.49,3.49-1,5.13-1.51-.19.8-.26,1.56-.21,2.28.05.73.19,1.47.42,2.21-3.66.75-7.18,1.5-10.58,2.25-3.4.75-6.55,1.49-9.45,2.21-2.91.73-5.52,1.41-7.84,2.04-2.32.63-4.23,1.21-5.73,1.72-.28-1.83-.91-3.63-1.9-5.41,1.08-.09,2.18-.22,3.3-.39,1.12-.16,2.29-.34,3.51-.53v-34.51c0-.84-.02-1.6-.07-2.28-.05-.68-.09-1.3-.14-1.86-.05-.56-.12-1.1-.21-1.62.8.23,1.72.43,2.78.6,1.05.16,2.03.27,2.92.32.56.05.89.24.98.56.09.33-.12.63-.63.91-.42.24-.74.63-.95,1.2-.21.56-.32,1.17-.32,1.83v34.16c1.55-.23,3.1-.5,4.67-.81,1.57-.3,3.13-.62,4.67-.95v-41.26c0-2.34-.05-4.18-.14-5.52-.09-1.34-.24-2.57-.42-3.69,1.08.23,2.1.41,3.06.53.96.12,1.79.18,2.5.18.56,0,.9.12,1.02.35.12.23-.08.49-.6.77-.47.28-.81.69-1.02,1.23-.21.54-.32,1.28-.32,2.21v14.97ZM381.96,269.45c4.26-3.98,7.56-7.37,9.88-10.16,2.32-2.79,3.99-5.17,5.03-7.13,1.22,1.41,2.65,2.53,4.29,3.37.56.28.85.59.88.91.02.33-.29.56-.95.7-.8.14-1.59.53-2.39,1.16-.8.63-1.88,1.68-3.23,3.13-.94.98-1.88,1.95-2.81,2.88-.94.94-1.95,1.92-3.02,2.95-1.08,1.03-2.24,2.11-3.48,3.23-1.24,1.12-2.64,2.37-4.18,3.73v19.26c0,.84.07,1.55.21,2.11.14.56.43,1.01.88,1.34.44.33,1.11.56,2,.7.89.14,2.11.21,3.66.21,2.06,0,3.74-.14,5.03-.42,1.29-.28,2.3-.77,3.02-1.48.73-.7,1.25-1.65,1.58-2.85.33-1.19.56-2.73.7-4.6,1.31,1.83,2.83,2.93,4.57,3.3-.38,1.88-.84,3.46-1.41,4.74-.56,1.29-1.38,2.33-2.46,3.13-1.08.8-2.51,1.37-4.29,1.72-1.78.35-4.05.53-6.82.53-2.44,0-4.37-.08-5.8-.25-1.43-.17-2.52-.5-3.27-1.02-.75-.52-1.23-1.27-1.44-2.25s-.32-2.3-.32-3.94v-45.27c0-3.33-.21-6.33-.63-9,2.11.42,4.17.63,6.19.63.8,0,1.21.18,1.23.53s-.32.71-1.02,1.09c-1.08.56-1.62,1.5-1.62,2.81v24.18Z"/>
        <path class="cls-4" d="M443.82,251.31c2.72,0,5.47-.04,8.26-.11s5.42-.14,7.91-.21c2.48-.07,4.74-.15,6.78-.25,2.04-.09,3.71-.21,5.03-.35l-4.85,9.98-3.79-1.62,2.53-4.22h-44.14c.05,1.36.07,2.82.07,4.39v4.67c0,1.55-.01,3.03-.04,4.46-.02,1.43-.06,2.71-.11,3.83-.14,4.03-.32,7.4-.53,10.12-.21,2.72-.56,5.13-1.05,7.24-.49,2.11-1.16,4.1-2,5.97s-1.95,3.98-3.3,6.33c-.8-.75-1.46-1.28-2-1.58-.54-.31-1.32-.62-2.35-.95,1.31-1.64,2.4-3.3,3.27-4.99.87-1.69,1.57-3.53,2.11-5.52.54-1.99.95-4.21,1.23-6.64.28-2.44.49-5.22.63-8.36.14-3.09.16-6.48.07-10.16-.09-3.68-.3-7.74-.63-12.2.75.05,1.66.08,2.74.11,1.08.02,2.47.04,4.18.04h15.64v-6.61c0-.89-.01-1.59-.04-2.11-.02-.52-.05-.97-.07-1.37-.02-.4-.07-.75-.14-1.05-.07-.3-.18-.69-.32-1.16,1.22.14,2.24.25,3.06.32.82.07,1.65.06,2.5-.04.52-.05.84.13.98.53.14.4-.02.79-.49,1.16-.33.24-.57.63-.74,1.19-.17.56-.29,1.17-.39,1.83h9.35c2.25,0,4.4-.05,6.47-.14,2.06-.09,4.03-.26,5.9-.49v4.29c-1.88-.19-3.84-.32-5.9-.39-2.06-.07-4.22-.11-6.47-.11h-9.35v4.15ZM435.17,288.5c.84-1.12,1.53-2.3,2.07-3.51.54-1.22,1.09-2.9,1.65-5.06h-8.01c-.84,1.5-1.63,2.77-2.35,3.8-.73,1.03-1.68,2.2-2.85,3.51-.38-.28-.7-.53-.98-.74s-.55-.4-.81-.56c-.26-.16-.54-.32-.84-.46s-.67-.28-1.09-.42c1.26-1.27,2.39-2.51,3.37-3.73.98-1.22,1.87-2.48,2.67-3.8.8-1.31,1.5-2.74,2.11-4.29.61-1.55,1.2-3.28,1.76-5.2.75.42,1.42.73,2,.91.58.19,1.35.38,2.28.56.66.14.98.42.98.84s-.33.75-.98.98c-.75.24-1.95,2.04-3.58,5.41h4.92c.8,0,1.75-.05,2.85-.14,1.1-.09,2.31-.23,3.62-.42-.94,3.61-1.94,6.62-3.02,9.03-1.08,2.41-2.13,4.37-3.16,5.87.94.84,1.93,1.59,2.99,2.25,1.05.66,2.21,1.27,3.48,1.83,1.36.61,2.78,1.11,4.25,1.51,1.48.4,3.28.67,5.41.81,2.13.14,4.75.15,7.87.04,3.12-.12,7.02-.36,11.7-.74-.38.8-.62,1.56-.74,2.28-.12.73-.2,1.49-.25,2.28-5.01.05-9.16.02-12.44-.07-3.28-.09-6.01-.27-8.19-.53-2.18-.26-3.98-.6-5.41-1.02s-2.8-.96-4.11-1.62c-1.27-.61-2.42-1.25-3.48-1.93s-2.14-1.49-3.27-2.42c-1.08.98-2.13,1.87-3.16,2.67-1.03.8-2.08,1.55-3.16,2.25-1.08.7-2.2,1.37-3.37,2-1.17.63-2.44,1.28-3.79,1.93-.38-.8-.81-1.44-1.3-1.93-.49-.49-1.25-1-2.28-1.51,2.86-.84,5.53-1.91,8.01-3.2,2.48-1.29,4.64-2.92,6.47-4.89-.66-.75-1.32-1.55-2-2.39-.68-.84-1.42-1.8-2.21-2.88l2.88-1.83c.61.89,1.21,1.7,1.79,2.42.58.73,1.16,1.42,1.72,2.07ZM438.69,264.18c-2.06.14-3.77.25-5.13.32-1.36.07-2.54.14-3.55.21-1.01.07-1.9.15-2.67.25-.77.09-1.58.19-2.42.28l-.35-4.15c1.87.19,3.9.27,6.08.25,2.18-.02,4.86-.11,8.05-.25,0-1.31-.02-2.28-.07-2.92-.05-.63-.17-1.37-.35-2.21.61.09,1.12.15,1.55.18.42.02.83.05,1.23.07.4.02.81.02,1.23,0,.42-.02.91-.08,1.48-.18.52-.09.84-.01.98.25.14.26-.05.57-.56.95-.42.33-.76.75-1.02,1.27-.26.52-.39,1.31-.39,2.39,3-.14,5.41-.26,7.24-.35,1.83-.09,3.33-.2,4.5-.32,1.17-.12,2.19-.23,3.06-.35.87-.12,1.86-.29,2.99-.53l.14,4.01h-3.27c-.96,0-2.06.02-3.3.07-1.24.05-2.75.12-4.53.21-1.78.09-4.05.21-6.82.35,0,.98.06,1.78.18,2.39.12.61.42,1.07.91,1.37.49.31,1.22.52,2.18.63.96.12,2.28.18,3.97.18,2.34,0,4.22-.02,5.62-.07,1.41-.05,2.51-.25,3.3-.6.8-.35,1.37-.92,1.72-1.72.35-.8.67-1.94.95-3.44.8.7,1.45,1.22,1.97,1.55.51.33,1.24.66,2.18.98-.66,1.69-1.31,2.98-1.97,3.87-.66.89-1.51,1.55-2.57,1.97-1.05.42-2.44.67-4.15.74-1.71.07-3.97.11-6.78.11-2.53,0-4.56-.05-6.08-.14-1.52-.09-2.7-.27-3.51-.53-.82-.26-1.36-.6-1.62-1.02-.26-.42-.39-.98-.39-1.69v-4.36ZM463.15,293.28c-.84,0-1.52-.08-2.04-.25-.52-.16-.91-.47-1.19-.91-.28-.44-.48-1.07-.6-1.86-.12-.8-.18-1.83-.18-3.09v-8.15h-5.69c-.09,2.16-.22,3.93-.39,5.31-.17,1.38-.43,2.62-.81,3.73-.38,1.1-.88,2.18-1.51,3.23-.63,1.05-1.49,2.28-2.57,3.69-.47-.56-.98-1.04-1.55-1.44-.56-.4-1.36-.78-2.39-1.16,1.55-1.36,2.69-2.55,3.44-3.58.75-1.03,1.24-2.23,1.48-3.58.23-1.31.34-2.85.32-4.6s-.15-3.36-.39-4.81c.61,0,1.17.01,1.69.04.51.02,1.03.04,1.55.04h7.49c.91,0,1.98-.02,3.2-.07,0,.66-.01,1.45-.04,2.39-.02.94-.05,1.92-.07,2.95-.02,1.03-.05,2.05-.07,3.06-.02,1.01-.04,1.91-.04,2.71,0,1.08.2,1.85.6,2.32.4.47,1.21.68,2.42.63.42,0,.78-.07,1.09-.21s.56-.4.77-.77c.21-.37.38-.88.49-1.51.12-.63.22-1.49.32-2.57.8.8,1.45,1.36,1.97,1.69.52.33,1.29.63,2.32.91-.42,1.36-.83,2.44-1.23,3.23-.4.8-.91,1.4-1.55,1.79-.63.4-1.49.64-2.57.74-1.08.09-2.51.14-4.29.14Z"/>
        <path class="cls-4" d="M514.46,248.78c2.72,0,5.44-.02,8.15-.07,2.72-.05,5.29-.11,7.73-.18,2.44-.07,4.64-.14,6.61-.21,1.97-.07,3.58-.15,4.85-.25v4.57c-2.39-.19-5.41-.33-9.07-.42-3.66-.09-7.76-.14-12.3-.14,1.92,1.83,3.83,3.42,5.73,4.78,1.9,1.36,3.82,2.55,5.76,3.58,1.94,1.03,3.97,1.9,6.08,2.6,2.11.7,4.33,1.31,6.68,1.83-.75.61-1.38,1.34-1.9,2.18-.52.84-.94,1.76-1.26,2.74-3.19-1.27-5.96-2.5-8.33-3.69-2.37-1.19-4.52-2.46-6.47-3.8-1.95-1.34-3.74-2.82-5.38-4.46-1.64-1.64-3.3-3.56-4.99-5.76h-1.9v8.36c0,.94.04,2.09.11,3.44.07,1.36.18,2.58.32,3.66h-5.34c.14-1.03.27-2.24.39-3.62.12-1.38.18-2.54.18-3.48v-8.36h-1.83c-1.41,1.83-2.85,3.55-4.32,5.17-1.48,1.62-3.18,3.19-5.1,4.71-1.92,1.52-4.12,3.03-6.61,4.53-2.48,1.5-5.41,3.05-8.79,4.64-.47-.84-1-1.62-1.58-2.32-.59-.7-1.37-1.38-2.35-2.04,4.54-1.17,8.89-2.94,13.04-5.31,4.15-2.37,7.95-5.49,11.42-9.38-3.98,0-7.77.05-11.35.14-3.58.09-6.71.24-9.38.42v-4.57c1.31.09,2.94.18,4.88.25,1.94.07,4.08.14,6.4.21s4.8.13,7.45.18c2.65.05,5.35.07,8.12.07-.05-2.06-.11-3.83-.18-5.31s-.15-2.54-.25-3.2c1.08.14,1.99.23,2.74.28.75.05,1.55.05,2.39,0,.61-.05.97.07,1.09.35.12.28-.06.59-.53.91-.38.23-.62.53-.74.88-.12.35-.18.86-.18,1.51v4.57ZM541.87,301.15c-3.37-.09-7.59-.19-12.65-.28-5.06-.09-10.66-.14-16.8-.14s-11.74.05-16.8.14c-5.06.09-9.28.19-12.65.28v-4.29c3.42.19,7.65.32,12.69.39,5.04.07,10.62.11,16.76.11s11.74-.05,16.8-.14c5.06-.09,9.28-.21,12.65-.35v4.29ZM532.87,292.22c-1.59-.19-4.08-.34-7.45-.46-3.37-.12-7.76-.18-13.14-.18s-9.7.06-13.07.18c-3.37.12-5.86.27-7.45.46.14-.94.26-1.9.35-2.88.09-.98.14-1.83.14-2.53v-12.65c0-.7-.05-1.55-.14-2.53-.09-.98-.21-1.94-.35-2.88.8.09,1.9.18,3.3.25,1.41.07,3.01.14,4.81.21,1.8.07,3.76.12,5.87.14,2.11.02,4.29.04,6.54.04s4.44-.01,6.57-.04c2.13-.02,4.1-.07,5.9-.14,1.8-.07,3.41-.14,4.81-.21s2.51-.15,3.3-.25c-.14.75-.24,1.56-.28,2.43-.05.87-.07,1.86-.07,2.99v12.65c0,1.12.02,2.12.07,2.99.05.87.14,1.68.28,2.42ZM528.37,278.8v-6.19h-31.91v6.19h31.91ZM496.46,282.03v6.19h31.91v-6.19h-31.91Z"/>
        <path class="cls-4" d="M578.77,248.29c-1.92.09-3.79.18-5.62.25-1.83.07-3.57.12-5.24.14-1.66.02-3.2.05-4.6.07-1.41.02-2.6.04-3.58.04-.28-1.5-.82-2.9-1.62-4.22,1.87.19,4.1.33,6.68.42,2.58.09,5.28.14,8.12.14s5.72-.06,8.65-.18c2.93-.12,5.66-.29,8.19-.53,2.2-.19,4.09-.37,5.66-.56,1.57-.19,2.93-.39,4.08-.6,1.15-.21,2.16-.43,3.02-.67.87-.23,1.72-.52,2.57-.84.47.8.96,1.52,1.48,2.18.51.66,1.03,1.27,1.55,1.83.52.52.68.9.49,1.16-.19.26-.54.34-1.05.25-.61-.14-1.21-.25-1.79-.32-.59-.07-1.34-.11-2.25-.11s-2.12.06-3.62.18c-1.5.12-3.47.27-5.9.46-1.59.14-3.33.27-5.2.39-1.88.12-3.82.22-5.83.32-.24,1.03-.47,2.05-.7,3.06-.24,1.01-.49,1.98-.77,2.92,5.25,0,9.93-.05,14.06-.14,4.12-.09,7.61-.23,10.47-.42v4.36c-2.95-.19-6.57-.33-10.86-.42-4.29-.09-9.17-.14-14.66-.14-.33,1.03-.67,2-1.02,2.92s-.71,1.77-1.09,2.57c3.56,0,7.06-.01,10.51-.04,3.44-.02,6.71-.06,9.8-.11,3.09-.05,5.94-.12,8.54-.21,2.6-.09,4.86-.19,6.78-.28v4.29c-1.92-.09-4.21-.19-6.85-.28-2.65-.09-5.56-.16-8.75-.21-3.19-.05-6.61-.08-10.26-.11-3.66-.02-7.43-.04-11.32-.04-.98,1.78-2.13,3.54-3.44,5.27h13.57c1.83,0,3.68-.01,5.55-.04,1.87-.02,3.65-.07,5.34-.14,1.69-.07,3.23-.13,4.64-.18,1.41-.05,2.53-.12,3.37-.21-.14.8-.26,1.82-.35,3.06-.09,1.24-.14,2.35-.14,3.34v17.57c0,1.64.05,3.16.14,4.57.09,1.41.23,2.81.42,4.22h-4.71v-3.87h-28.89v4.64h-4.71c.19-1.59.32-3.06.39-4.39s.11-2.85.11-4.53v-17.57c-1.92,2.11-3.95,4.15-6.08,6.12-2.13,1.97-4.32,3.87-6.57,5.69-.66-.66-1.32-1.24-2-1.76-.68-.52-1.56-1.08-2.64-1.69,2.2-1.22,4.35-2.62,6.43-4.22,2.08-1.59,4.05-3.27,5.9-5.03,1.85-1.76,3.53-3.56,5.03-5.41,1.5-1.85,2.79-3.67,3.87-5.45-2.11,0-3.96.02-5.55.07-1.59.05-3.12.09-4.57.14-1.45.05-2.91.11-4.36.18s-3.05.15-4.78.25v-4.29c1.78.09,3.42.18,4.92.25,1.5.07,3.03.13,4.6.18,1.57.05,3.26.09,5.06.14,1.8.05,3.92.07,6.36.07.47-.94.9-1.85,1.3-2.74.4-.89.78-1.8,1.16-2.74-1.78,0-3.34.02-4.67.07-1.34.05-2.59.08-3.76.11-1.17.02-2.3.07-3.37.14-1.08.07-2.27.15-3.58.25v-4.36c1.36.09,2.61.18,3.76.25,1.15.07,2.33.12,3.55.14,1.22.02,2.57.06,4.04.11,1.48.05,3.2.07,5.17.07.66-1.92,1.15-3.84,1.48-5.76ZM601.19,274.23h-28.89v5.27h28.89v-5.27ZM572.3,287.72h28.89v-5.06h-28.89v5.06ZM572.3,296.23h28.89v-5.34h-28.89v5.34Z"/>
        <path class="cls-4" d="M645.62,282.17c-4.12-.05-8.08-.02-11.88.07-3.79.09-7.05.23-9.77.42v-4.57c2.81.23,6.36.41,10.65.53,4.29.12,9.74.18,16.34.18-.05-1.22-.09-2.28-.14-3.2-.05-.91-.12-1.65-.21-2.21,2.06.28,3.82.35,5.27.21.51-.05.83.11.95.46.12.35-.11.64-.67.88-.38.19-.62.46-.74.81-.12.35-.18.74-.18,1.16v1.9c2.86,0,5.65-.02,8.36-.07,2.72-.05,5.26-.11,7.63-.18,2.37-.07,4.51-.14,6.43-.21,1.92-.07,3.51-.15,4.78-.25v4.57c-2.34-.19-5.46-.32-9.35-.39-3.89-.07-8.13-.11-12.72-.11,1.64,1.59,3.43,3.07,5.38,4.43,1.94,1.36,3.97,2.59,6.08,3.69,2.11,1.1,4.25,2.06,6.43,2.88,2.18.82,4.3,1.47,6.36,1.93-.7.38-1.38.98-2.04,1.83-.66.84-1.12,1.73-1.41,2.67-6.14-2.58-11.21-5.28-15.22-8.12-4.01-2.83-7.13-5.94-9.38-9.31h-1.34v13.07c0,.52.01,1.14.04,1.86.02.73.05,1.48.07,2.25.02.77.06,1.51.11,2.21.05.7.09,1.31.14,1.83h-5.06c.05-.56.11-1.21.18-1.93.07-.73.13-1.48.18-2.25.05-.77.08-1.51.11-2.21.02-.7.04-1.29.04-1.76v-13.07h-1.2c-1.36,1.64-2.82,3.2-4.39,4.67s-3.36,2.94-5.38,4.39c-2.01,1.45-4.29,2.92-6.82,4.39-2.53,1.48-5.41,2.99-8.65,4.53-.38-.84-.86-1.59-1.44-2.25-.59-.66-1.37-1.24-2.35-1.76,1.87-.47,3.85-1.12,5.94-1.97,2.08-.84,4.21-1.85,6.36-3.02,2.15-1.17,4.29-2.51,6.4-4.01,2.11-1.5,4.15-3.16,6.12-4.99ZM644.56,256.52h-3.94v-5.97c-4.45,0-8.1.06-10.93.18-2.84.12-5.28.27-7.35.46v-4.57c2.06.24,4.52.4,7.38.49,2.86.09,6.49.14,10.89.14-.05-1.36-.09-2.74-.14-4.15-.05-1.41-.12-2.37-.21-2.88.89.09,1.76.18,2.6.25.84.07,1.66.1,2.46.1.42,0,.67.14.74.42s-.15.56-.67.84c-.23.14-.43.35-.6.63-.17.28-.25.61-.25.98v3.8h16.8c-.05-1.22-.09-2.47-.14-3.76-.05-1.29-.12-2.42-.21-3.41.89.09,1.76.19,2.6.28.84.09,1.64.14,2.39.14.38,0,.6.14.67.42s-.08.54-.46.77c-.28.23-.5.57-.67,1.02-.17.45-.25,1.3-.25,2.57v1.97c4.45,0,8.08-.05,10.89-.14,2.81-.09,5.25-.26,7.31-.49v4.57c-2.06-.19-4.51-.34-7.34-.46-2.84-.12-6.46-.18-10.86-.18v5.34h-3.94v-5.34h-16.8v5.97ZM626.36,257.57c1.73.19,3.84.33,6.33.42,2.48.09,5.1.15,7.84.18,2.74.02,5.47.01,8.19-.04,2.72-.05,5.2-.12,7.45-.21,2.11-.09,4.22-.23,6.33-.42,2.11-.19,4.06-.41,5.87-.67,1.8-.26,3.38-.54,4.74-.84,1.36-.3,2.34-.6,2.95-.88.37.89.76,1.65,1.16,2.28.4.63.83,1.21,1.3,1.72.61.61.84,1.05.7,1.34s-.63.31-1.48.07c-.84-.23-2.23-.36-4.15-.39-1.92-.02-4.12.08-6.61.32-2.48.23-5.04.43-7.66.6-2.62.17-5.5.33-8.61.49-3.12.16-6.55.31-10.3.42-3.75.12-7.97.25-12.65.39,0-.84-.13-1.66-.39-2.46-.26-.8-.6-1.57-1.02-2.32ZM639.29,275.7c-.94-1.45-2.18-2.95-3.73-4.5-1.55-1.55-3.14-2.93-4.78-4.15l3.02-2.95c1.55,1.31,3.02,2.68,4.43,4.11,1.41,1.43,2.83,2.96,4.29,4.6l-3.23,2.88ZM655.1,272.96c-.98-1.41-2.23-2.83-3.73-4.29-1.5-1.45-3.07-2.79-4.71-4.01l2.95-2.6c1.55,1.22,3.03,2.48,4.46,3.8,1.43,1.31,2.87,2.79,4.32,4.43l-3.3,2.67ZM673.24,261.65c.47.56,1.05,1.08,1.76,1.55.7.47,1.36.77,1.97.91.61.14.9.38.88.7-.02.33-.29.56-.81.7-.28.09-.67.32-1.16.67s-1.12.94-1.9,1.76c-.77.82-1.73,1.9-2.88,3.23-1.15,1.34-2.54,3.06-4.18,5.17-.52-.47-1.12-.89-1.83-1.27-.7-.37-1.45-.63-2.25-.77,2.39-2.25,4.5-4.49,6.33-6.71,1.83-2.23,3.19-4.21,4.08-5.94Z"/>
        <path class="cls-4" d="M725.82,288c3.09,0,6.1-.01,9.03-.04,2.93-.02,5.66-.06,8.19-.11,2.53-.05,4.79-.11,6.78-.18,1.99-.07,3.6-.15,4.81-.25v4.57c-1.22-.09-2.81-.19-4.78-.28-1.97-.09-4.21-.16-6.71-.21-2.51-.05-5.24-.08-8.19-.11-2.95-.02-6-.04-9.14-.04,0,1.55.02,2.86.07,3.94.05,1.08.09,2.06.14,2.95.05.89.11,1.75.18,2.57.07.82.15,1.75.25,2.78h-5.62c.09-1.03.19-2,.28-2.92.09-.91.16-1.84.21-2.78.05-.94.08-1.93.11-2.99.02-1.05.03-2.24.03-3.55-3.05,0-6.09.01-9.14.04-3.05.02-5.93.06-8.65.11-2.72.05-5.14.12-7.28.21-2.13.09-3.81.19-5.03.28v-4.57c2.53.24,6.23.39,11.11.46,4.87.07,11.2.11,18.98.11v-5.62c-5.25,0-9.62.06-13.11.18-3.49.12-6.06.27-7.7.46.23-.94.39-1.9.46-2.88.07-.98.11-1.83.11-2.53v-11.67c0-.7-.04-1.55-.11-2.53s-.22-1.94-.46-2.88c1.73.19,4.51.34,8.33.46,3.82.12,8.61.18,14.37.18s10.65-.06,14.37-.18c3.73-.12,6.45-.27,8.19-.46-.14.75-.25,1.56-.32,2.42-.07.87-.11,1.86-.11,2.99v11.67c0,2.16.14,3.96.42,5.41-3.14-.33-9.84-.54-20.1-.63v5.62ZM719.91,257.01c-.7-.05-1.42-.08-2.14-.11-.73-.02-1.52-.05-2.39-.07-.87-.02-1.84-.04-2.92-.04h-10.4c-.89,0-1.71.01-2.46.04-.75.02-1.48.06-2.18.11.09-.94.15-1.93.18-2.99.02-1.05.04-2.28.04-3.69,0-2.67-.07-4.92-.21-6.75.75.05,1.49.09,2.21.14.73.05,1.53.08,2.42.11.89.02,1.87.04,2.95.04h7.45c1.08,0,2.04-.01,2.88-.04.84-.02,1.63-.05,2.35-.07.73-.02,1.46-.06,2.21-.11-.14,1.83-.21,4.03-.21,6.61,0,1.41.01,2.66.04,3.76.02,1.1.08,2.12.18,3.06ZM715.62,246.81h-13.92v7.1h13.92v-7.1ZM721.46,264.11h-16.03v6.04h16.03v-6.04ZM721.46,273.1h-16.03v6.04h16.03v-6.04ZM749.15,257.08c-1.45-.09-3.06-.15-4.81-.18-1.76-.02-4.07-.04-6.92-.04h-4.32c-1.2,0-2.24.01-3.13.04-.89.02-1.68.05-2.36.07-.68.02-1.37.04-2.07.04.09-.94.15-1.96.18-3.06.02-1.1.04-2.35.04-3.76,0-2.58-.07-4.78-.21-6.61,1.5.09,3.15.17,4.96.21,1.8.05,4.11.07,6.92.07h3.8c1.12,0,2.15-.01,3.09-.04.94-.02,1.79-.05,2.57-.07.77-.02,1.53-.06,2.28-.11-.14,1.83-.21,4.08-.21,6.75,0,1.41.01,2.64.04,3.69.02,1.05.08,2.05.18,2.99ZM725.82,270.15h15.46v-6.04h-15.46v6.04ZM725.82,279.15h15.46v-6.04h-15.46v6.04ZM744.86,246.89h-15.04v7.1h15.04v-7.1Z"/>
        <path class="cls-4" d="M777.9,248.43c-2.62,0-5.04.05-7.24.14-2.2.09-4.12.23-5.76.42v-4.64c2.15.19,4.81.33,7.98.42,3.16.09,6.64.14,10.44.14s7.17-.05,10.12-.14c2.95-.09,5.48-.23,7.59-.42v4.64c-1.12-.09-2.26-.18-3.41-.25s-2.45-.13-3.9-.18c-1.45-.05-3.14-.08-5.06-.11-1.92-.02-4.19-.04-6.82-.04-.33,2.02-.67,3.89-1.02,5.62-.35,1.73-.79,3.42-1.3,5.06h12.72c.42,0,.9-.01,1.44-.04.54-.02,1.09-.06,1.65-.11.56-.05,1.09-.09,1.58-.14.49-.05.92-.09,1.3-.14-.8,4.31-1.64,8.15-2.53,11.53-.89,3.37-1.9,6.41-3.02,9.1-1.12,2.7-2.42,5.11-3.9,7.24-1.48,2.13-3.19,4.12-5.13,5.97-1.94,1.85-4.16,3.62-6.64,5.31-2.48,1.69-5.32,3.4-8.51,5.13-.38-.75-.9-1.52-1.58-2.32-.68-.8-1.42-1.41-2.21-1.83,5.25-1.97,9.65-4.29,13.21-6.96,3.56-2.67,6.49-5.95,8.79-9.84-1.92-1.78-3.76-3.38-5.52-4.81-1.76-1.43-3.57-2.78-5.45-4.04l2.18-3.02c1.83,1.22,3.67,2.58,5.52,4.08,1.85,1.5,3.53,2.98,5.03,4.43,1.08-2.25,1.99-4.69,2.74-7.31.75-2.62,1.41-5.51,1.97-8.65h-14.83c-1.08,2.81-2.44,5.56-4.08,8.26-1.64,2.69-3.72,5.59-6.25,8.68-1.27-1.41-2.77-2.32-4.5-2.74,3.8-3.23,6.95-7.22,9.45-11.95,2.51-4.73,4.16-10.24,4.96-16.52ZM809.67,250.68c-.52.33-.77.94-.77,1.83v22.84c0,.66.01,1.44.04,2.35.02.91.06,1.86.11,2.85.05.98.09,1.96.14,2.92.05.96.12,1.84.21,2.64h-5.2c.05-.8.11-1.69.18-2.67s.13-1.96.18-2.92c.05-.96.08-1.9.11-2.81.02-.91.04-1.7.04-2.35v-17.5c0-1.69-.06-3.37-.18-5.06-.12-1.69-.25-3-.39-3.94.94.23,1.86.4,2.78.49.91.09,1.72.12,2.42.07.56-.09.89.01.98.32.09.31-.12.62-.63.95ZM822.39,240.98c-.56.24-.84.84-.84,1.83v51.66c0,1.64-.12,3-.35,4.08-.23,1.08-.76,1.93-1.58,2.57-.82.63-2,1.09-3.55,1.37-1.55.28-3.61.49-6.19.63,0-1.08-.13-2-.39-2.78-.26-.77-.86-1.7-1.79-2.78,2.16.33,3.87.5,5.13.53,1.27.02,2.23-.12,2.88-.42.66-.31,1.07-.8,1.23-1.48.16-.68.25-1.58.25-2.71v-43.44c0-2.39-.06-4.59-.18-6.61-.12-2.01-.25-3.49-.39-4.43,1.69.42,3.42.59,5.2.49.66-.05,1.03.12,1.12.49.09.38-.09.7-.56.98Z"/>
        <path class="cls-4" d="M861.69,251.59c-2.48,0-4.91.01-7.28.04-2.37.02-4.62.06-6.75.11-2.13.05-4.1.11-5.9.18s-3.36.15-4.67.25v-4.5c1.31.09,2.87.18,4.67.25s3.77.13,5.9.18c2.13.05,4.38.08,6.75.11,2.37.02,4.79.04,7.28.04v-2.11c0-.84-.01-1.56-.04-2.14-.02-.59-.05-1.1-.07-1.55-.02-.44-.07-.85-.14-1.23-.07-.37-.15-.8-.25-1.27,1.03.23,1.94.38,2.74.42.8.05,1.64.05,2.53,0,.61-.05.94.05.98.28.05.24-.19.54-.7.91-.52.38-.77,1.59-.77,3.65v3.02c5.11,0,9.86-.04,14.27-.11,4.4-.07,7.99-.22,10.75-.46v4.5c-2.77-.23-6.35-.39-10.75-.46-4.41-.07-9.16-.11-14.27-.11v7.1c4.54,0,8.76-.04,12.65-.11,3.89-.07,7.08-.22,9.56-.46v4.36c-2.48-.23-5.67-.39-9.56-.46-3.89-.07-8.11-.11-12.65-.11v7.31c6.09,0,11.63-.04,16.62-.11,4.99-.07,9.1-.22,12.34-.46v4.57c-2.95-.19-6.61-.33-10.96-.42-4.36-.09-9.16-.14-14.41-.14.8,2.2,1.77,4.22,2.92,6.04,1.15,1.83,2.45,3.56,3.9,5.2,2.2-1.97,3.95-3.71,5.24-5.24,1.29-1.52,2.4-3.1,3.34-4.74.66.61,1.37,1.16,2.14,1.65.77.49,1.49.83,2.14,1.02.56.14.83.36.81.67-.02.31-.27.5-.74.6-.38.09-.77.25-1.19.46-.42.21-1.01.61-1.76,1.19-.75.59-1.73,1.43-2.95,2.53-1.22,1.1-2.79,2.57-4.71,4.39,2.11,2.06,4.49,3.82,7.13,5.27,2.65,1.45,5.75,2.7,9.31,3.73-1.59,1.59-2.79,3.26-3.58,4.99-3.79-1.87-7.04-3.78-9.73-5.73-2.7-1.94-5.04-4.02-7.03-6.22-1.99-2.2-3.7-4.6-5.13-7.2-1.43-2.6-2.78-5.47-4.04-8.61h-4.71c-1.59,2.02-3.37,3.96-5.34,5.83v17.78l15.74-5.55c-.14.84-.2,1.62-.18,2.32.02.7.13,1.38.32,2.04l-13.78,4.78c-1.08.37-2.17.83-3.27,1.37-1.1.54-2.21,1.23-3.34,2.07-.47-1.5-1.36-2.65-2.67-3.44,1.12-.89,1.9-1.71,2.32-2.46.42-.75.63-1.83.63-3.23v-11.95c-2.11,1.64-4.42,3.3-6.92,4.99-2.51,1.69-5.31,3.44-8.4,5.27-.66-.8-1.23-1.42-1.72-1.86-.49-.44-1.25-.95-2.28-1.51,2.81-1.27,5.37-2.52,7.66-3.76,2.3-1.24,4.43-2.52,6.4-3.83,1.97-1.31,3.81-2.69,5.52-4.15,1.71-1.45,3.38-3.02,5.03-4.71-4.73.05-9.08.12-13.04.21-3.96.09-7.3.21-10.02.35v-4.57c3.23.24,7.26.39,12.09.46,4.83.07,10.17.11,16.03.11v-7.31c-4.41,0-8.53.05-12.37.14-3.84.09-6.96.23-9.35.42v-4.36c2.39.19,5.51.33,9.35.42,3.84.09,7.97.14,12.37.14v-7.1Z"/>
      </g>
      <g>
        <g class="cls-6">
          <rect class="cls-4" x="1824.98" y="71.25" width="220.21" height="220.21"/>
        </g>
        <path d="M1846.29,117.43v24.86h49.72v-49.72h-49.72v24.86ZM1888.91,117.43v17.76h-35.52v-35.52h35.52v17.76Z"/>
        <path d="M1860.5,117.43v10.66h21.31v-21.31h-21.31v10.66Z"/>
        <path d="M1903.12,96.12v3.55h7.1v28.41h14.21v7.1h-7.1v21.31h-14.21v14.21h7.1v-7.1h7.1v7.1h14.21v-14.21h7.1v-7.1h7.1v7.1h7.1v14.21h7.1v7.1h7.1v-14.21h-7.1v-7.1h7.1v-7.1h-21.31v-7.1h7.1v-21.31h14.21v-7.1h-7.1v-7.1h7.1v-7.1h-7.1v7.1h-7.1v-14.21h-7.1v14.21h-7.1v7.1h-7.1v7.1h7.1v7.1h7.1v14.21h-7.1v-7.1h-7.1v-7.1h-7.1v-7.1h-7.1v-7.1h7.1v-21.31h-7.1v7.1h-7.1v-7.1h-7.1v3.55ZM1952.84,113.88v7.1h-7.1v-14.21h7.1v7.1ZM1931.53,138.74v3.55h7.1v7.1h-14.21v-14.21h7.1v3.55Z"/>
        <path d="M1974.15,117.43v24.86h49.72v-49.72h-49.72v24.86ZM2016.78,117.43v17.76h-35.52v-35.52h35.52v17.76Z"/>
        <path d="M1988.36,117.43v10.66h21.31v-21.31h-21.31v10.66Z"/>
        <path d="M1903.12,142.29v7.1h7.1v-14.21h-7.1v7.1Z"/>
        <path d="M1959.95,138.74v3.55h7.1v-7.1h-7.1v3.55Z"/>
        <path d="M1846.29,181.36v31.97h7.1v-14.21h7.1v14.21h7.1v-14.21h7.1v7.1h7.1v7.1h21.31v7.1h7.1v-7.1h-7.1v-7.1h7.1v-7.1h14.21v-7.1h28.41v7.1h7.1v-7.1h7.1v14.21h-35.52v7.1h14.21v14.21h-7.1v7.1h-7.1v-14.21h-7.1v-7.1h-7.1v14.21h-7.1v7.1h-7.1v14.21h7.1v7.1h-7.1v14.21h7.1v-7.1h14.21v7.1h14.21v-14.21h7.1v-7.1h7.1v-7.1h14.21v7.1h-7.1v7.1h7.1v7.1h-7.1v7.1h7.1v-7.1h7.1v7.1h7.1v-7.1h14.21v7.1h7.1v-7.1h14.21v7.1h7.1v-21.31h-35.52v7.1h-14.21v-7.1h7.1v-7.1h14.21v-35.52h7.1v14.21h14.21v21.31h7.1v-21.31h-7.1v-14.21h7.1v-14.21h-7.1v-7.1h7.1v-21.31h-7.1v-7.1h7.1v-7.1h-7.1v7.1h-35.52v-7.1h-7.1v7.1h7.1v14.21h7.1v7.1h-14.21v7.1h14.21v14.21h-7.1v-7.1h-14.21v-7.1h-28.41v-7.1h-7.1v7.1h-7.1v-7.1h-49.72v-7.1h7.1v-7.1h-7.1v-7.1h7.1v-7.1h-14.21v14.21h-7.1v-14.21h-14.21v31.97ZM1874.71,167.15v3.55h-7.1v7.1h7.1v14.21h14.21v-7.1h14.21v7.1h-14.21v7.1h14.21v7.1h-21.31v-7.1h-7.1v-7.1h-14.21v-14.21h-7.1v-7.1h14.21v-7.1h7.1v3.55ZM1995.46,167.15v3.55h-7.1v-7.1h7.1v3.55ZM2016.78,167.15v3.55h-14.21v-7.1h14.21v3.55ZM2016.78,181.36v3.55h-7.1v7.1h-14.21v-7.1h-7.1v-7.1h28.41v3.55ZM1924.43,188.46v3.55h-14.21v-7.1h14.21v3.55ZM1981.26,202.67v3.55h-7.1v-7.1h7.1v3.55ZM1995.46,202.67v3.55h-7.1v-7.1h7.1v3.55ZM2016.78,202.67v3.55h-7.1v-7.1h7.1v3.55ZM1959.95,220.43v7.1h-7.1v14.21h-14.21v14.21h-7.1v7.1h-7.1v-7.1h-7.1v-7.1h-7.1v-7.1h7.1v7.1h7.1v7.1h7.1v-14.21h7.1v-7.1h7.1v-7.1h7.1v-14.21h7.1v7.1ZM1988.36,223.98v10.66h-21.31v-21.31h21.31v10.66ZM1924.43,231.08v3.55h-7.1v-7.1h7.1v3.55ZM2002.57,259.5v3.55h-7.1v-7.1h7.1v3.55Z"/>
        <path d="M1974.15,223.98v3.55h7.1v-7.1h-7.1v3.55Z"/>
        <path d="M1888.91,152.94v3.55h7.1v-7.1h-7.1v3.55Z"/>
        <path d="M1888.91,167.15v3.55h7.1v-7.1h-7.1v3.55Z"/>
        <path d="M1846.29,245.29v24.86h49.72v-49.72h-49.72v24.86ZM1888.91,245.29v17.76h-35.52v-35.52h35.52v17.76Z"/>
        <path d="M1860.5,245.29v10.66h21.31v-21.31h-21.31v10.66Z"/>
      </g>
      <g>
        <g class="cls-2">
          <rect class="cls-4" x="1517.44" y="68.88" width="225.39" height="225.39"/>
        </g>
        <path d="M1539.15,112.5v21.91h43.83v-43.83h-43.83v21.91ZM1576.71,112.5v15.65h-31.3v-31.3h31.3v15.65Z"/>
        <path d="M1551.67,112.5v9.39h18.78v-18.78h-18.78v9.39Z"/>
        <path d="M1595.49,93.72v3.13h-6.26v6.26h6.26v6.26h-6.26v6.26h12.52v18.78h6.26v-18.78h6.26v6.26h12.52v18.78h-6.26v-12.52h-6.26v18.78h6.26v6.26h-12.52v6.26h-6.26v-12.52h6.26v-6.26h-31.3v6.26h-6.26v-6.26h-31.3v18.78h6.26v6.26h-6.26v12.52h6.26v-6.26h12.52v6.26h12.52v12.52h6.26v6.26h12.52v6.26h6.26v6.26h-12.52v-6.26h-12.52v18.78h18.78v12.52h6.26v6.26h-6.26v31.3h25.04v-12.52h6.26v-6.26h-12.52v-6.26h-6.26v-18.78h-6.26v-6.26h-6.26v-6.26h18.78v6.26h6.26v6.26h6.26v6.26h-6.26v12.52h6.26v-6.26h6.26v6.26h12.52v6.26h-6.26v6.26h-6.26v6.26h6.26v-6.26h6.26v6.26h6.26v6.26h6.26v-6.26h-6.26v-6.26h-6.26v-6.26h6.26v-6.26h6.26v6.26h6.26v6.26h6.26v6.26h12.52v-6.26h6.26v6.26h6.26v-6.26h6.26v6.26h6.26v6.26h6.26v-6.26h6.26v-12.52h6.26v-6.26h-12.52v-6.26h-6.26v6.26h-6.26v-12.52h12.52v-6.26h12.52v-12.52h-6.26v-6.26h-6.26v-18.78h6.26v-6.26h-6.26v-6.26h-12.52v-6.26h12.52v-6.26h6.26v-6.26h-6.26v6.26h-6.26v-6.26h-6.26v-12.52h6.26v-6.26h-6.26v6.26h-6.26v-6.26h-6.26v6.26h-6.26v-6.26h-6.26v6.26h-18.78v-6.26h-6.26v-12.52h6.26v6.26h6.26v6.26h6.26v-6.26h6.26v-12.52h-6.26v-6.26h6.26v-6.26h-6.26v-6.26h6.26v-6.26h-6.26v-6.26h-25.04v6.26h-6.26v-6.26h-6.26v12.52h6.26v6.26h-12.52v6.26h-6.26v-12.52h6.26v-6.26h-12.52v6.26h-6.26v-12.52h-6.26v3.13ZM1645.58,99.98v3.13h6.26v-6.26h12.52v6.26h-12.52v6.26h12.52v6.26h-12.52v6.26h-6.26v6.26h-6.26v12.52h6.26v18.78h6.26v-6.26h25.04v6.26h-12.52v12.52h-12.52v-6.26h-6.26v6.26h-6.26v6.26h-12.52v-6.26h-12.52v6.26h6.26v6.26h-6.26v12.52h6.26v-6.26h6.26v-6.26h18.78v-6.26h18.78v12.52h6.26v-12.52h12.52v12.52h12.52v-6.26h-6.26v-6.26h6.26v6.26h12.52v6.26h-12.52v6.26h6.26v12.52h6.26v6.26h-6.26v6.26h-6.26v-6.26h-6.26v-12.52h6.26v-6.26h-18.78v6.26h-6.26v6.26h12.52v6.26h-18.78v-6.26h-6.26v12.52h6.26v6.26h-6.26v12.52h6.26v6.26h31.3v6.26h-31.3v-6.26h-12.52v-6.26h-6.26v-12.52h-12.52v-6.26h-18.78v-12.52h6.26v-6.26h-12.52v6.26h-6.26v-6.26h6.26v-6.26h-6.26v-12.52h-12.52v-12.52h6.26v6.26h6.26v6.26h6.26v-12.52h-6.26v-6.26h6.26v6.26h6.26v-12.52h6.26v-6.26h6.26v-6.26h6.26v-18.78h6.26v-6.26h-12.52v-6.26h6.26v-6.26h6.26v-12.52h6.26v3.13ZM1608.02,112.5v3.13h-6.26v-6.26h6.26v3.13ZM1664.36,128.15v6.26h-6.26v-12.52h6.26v6.26ZM1551.67,150.06v3.13h6.26v-6.26h12.52v6.26h6.26v-6.26h6.26v6.26h6.26v6.26h-6.26v6.26h-6.26v6.26h6.26v6.26h-12.52v-6.26h-12.52v-12.52h-12.52v-12.52h6.26v3.13ZM1689.41,162.59v3.13h6.26v6.26h-25.04v-6.26h12.52v-6.26h6.26v3.13ZM1582.97,187.63v3.13h-6.26v-6.26h6.26v3.13ZM1595.49,193.89v3.13h-6.26v-6.26h6.26v3.13ZM1582.97,212.67v3.13h-6.26v-6.26h6.26v3.13ZM1689.41,231.46v9.39h-18.78v-18.78h18.78v9.39ZM1633.06,237.72v3.13h-6.26v-6.26h6.26v3.13ZM1601.75,256.5v3.13h6.26v6.26h-6.26v-6.26h-6.26v-6.26h6.26v3.13ZM1708.19,262.76v3.13h-6.26v-6.26h6.26v3.13Z"/>
        <path d="M1645.58,112.5v3.13h-6.26v6.26h6.26v-6.26h6.26v-6.26h-6.26v3.13Z"/>
        <path d="M1626.8,156.33v3.13h6.26v6.26h6.26v-12.52h-12.52v3.13Z"/>
        <path d="M1626.8,193.89v3.13h12.52v6.26h-6.26v6.26h-6.26v6.26h6.26v-6.26h6.26v6.26h6.26v12.52h12.52v-6.26h-6.26v-6.26h-6.26v-6.26h6.26v-6.26h18.78v-6.26h-6.26v-6.26h-18.78v6.26h-6.26v-6.26h-12.52v3.13Z"/>
        <path d="M1557.93,156.33v3.13h12.52v-6.26h-12.52v3.13Z"/>
        <path d="M1576.71,156.33v3.13h6.26v-6.26h-6.26v3.13Z"/>
        <path d="M1676.89,231.46v3.13h6.26v-6.26h-6.26v3.13Z"/>
        <path d="M1676.89,112.5v21.91h43.83v-43.83h-43.83v21.91ZM1714.45,112.5v15.65h-31.3v-31.3h31.3v15.65Z"/>
        <path d="M1689.41,112.5v9.39h18.78v-18.78h-18.78v9.39Z"/>
        <path d="M1589.23,128.15v6.26h6.26v-12.52h-6.26v6.26Z"/>
        <path d="M1708.19,143.8v3.13h6.26v6.26h6.26v-6.26h-6.26v-6.26h-6.26v3.13Z"/>
        <path d="M1714.45,175.11v3.13h6.26v-6.26h-6.26v3.13Z"/>
        <path d="M1545.41,187.63v3.13h-6.26v31.3h6.26v-25.04h12.52v6.26h6.26v-12.52h-12.52v-6.26h-6.26v3.13Z"/>
        <path d="M1714.45,200.15v3.13h6.26v-6.26h-6.26v3.13Z"/>
        <path d="M1551.67,215.8v6.26h12.52v-12.52h-12.52v6.26Z"/>
        <path d="M1539.15,250.24v21.91h43.83v-43.83h-43.83v21.91ZM1576.71,250.24v15.65h-31.3v-31.3h31.3v15.65Z"/>
        <path d="M1551.67,250.24v9.39h18.78v-18.78h-18.78v9.39Z"/>
        <path d="M1714.45,237.72v3.13h6.26v-6.26h-6.26v3.13Z"/>
      </g>
      <g>
        <g class="cls-3">
          <rect class="cls-4" x="1204.33" y="68.26" width="225.39" height="225.39"/>
        </g>
        <path d="M1226.03,111.88v21.91h43.83v-43.83h-43.83v21.91ZM1263.59,111.88v15.65h-31.3v-31.3h31.3v15.65Z"/>
        <path d="M1238.55,111.88v9.39h18.78v-18.78h-18.78v9.39Z"/>
        <path d="M1282.38,93.1v3.13h12.52v6.26h-12.52v6.26h-6.26v12.52h6.26v6.26h-6.26v6.26h6.26v12.52h-6.26v-6.26h-18.78v18.78h12.52v-6.26h-6.26v-6.26h12.52v6.26h6.26v6.26h-6.26v6.26h-12.52v6.26h6.26v6.26h-6.26v6.26h-25.04v-12.52h6.26v-6.26h6.26v6.26h6.26v-6.26h-6.26v-18.78h-12.52v-6.26h-12.52v12.52h6.26v12.52h-6.26v12.52h6.26v6.26h-6.26v6.26h6.26v6.26h-6.26v25.04h6.26v-12.52h6.26v-6.26h6.26v-6.26h6.26v6.26h12.52v6.26h6.26v6.26h-6.26v6.26h12.52v18.78h6.26v12.52h6.26v6.26h-12.52v12.52h12.52v-12.52h6.26v12.52h6.26v-12.52h6.26v-6.26h-18.78v-6.26h25.04v-12.52h12.52v6.26h-6.26v25.04h6.26v-12.52h6.26v-6.26h-6.26v-6.26h6.26v-12.52h12.52v18.78h-6.26v6.26h6.26v6.26h18.78v6.26h12.52v-6.26h6.26v6.26h6.26v6.26h6.26v-12.52h6.26v6.26h6.26v-6.26h-6.26v-6.26h6.26v-18.78h-12.52v-6.26h-6.26v-6.26h18.78v-6.26h-18.78v6.26h-6.26v-6.26h-6.26v-6.26h-6.26v6.26h-6.26v-12.52h18.78v6.26h6.26v-6.26h12.52v6.26h6.26v-12.52h-12.52v-18.78h12.52v-12.52h-6.26v6.26h-6.26v6.26h-12.52v-6.26h-6.26v-6.26h12.52v-6.26h-6.26v-12.52h6.26v6.26h12.52v-6.26h-12.52v-6.26h-12.52v6.26h-6.26v6.26h-6.26v25.04h6.26v6.26h-12.52v-12.52h-6.26v-6.26h6.26v-6.26h-6.26v6.26h-6.26v6.26h-12.52v-12.52h6.26v-6.26h12.52v-6.26h-12.52v-6.26h-6.26v-12.52h6.26v6.26h6.26v6.26h6.26v-6.26h6.26v-12.52h-6.26v-6.26h-12.52v-6.26h12.52v-6.26h6.26v-12.52h-6.26v12.52h-12.52v-6.26h6.26v-6.26h-6.26v6.26h-6.26v6.26h6.26v6.26h-12.52v-6.26h-6.26v-6.26h-6.26v-6.26h-6.26v6.26h-6.26v-6.26h-18.78v3.13ZM1313.68,99.36v3.13h6.26v12.52h6.26v6.26h6.26v-6.26h6.26v6.26h-6.26v6.26h-6.26v6.26h-6.26v-12.52h-6.26v18.78h-6.26v-12.52h-6.26v18.78h6.26v6.26h6.26v6.26h6.26v6.26h6.26v6.26h-6.26v6.26h-6.26v-6.26h6.26v-6.26h-12.52v6.26h-6.26v6.26h6.26v6.26h-6.26v12.52h6.26v-6.26h6.26v6.26h6.26v6.26h-18.78v6.26h12.52v6.26h18.78v-6.26h-6.26v-6.26h18.78v18.78h6.26v6.26h-6.26v-6.26h-6.26v-6.26h-6.26v6.26h-12.52v6.26h-6.26v-6.26h-12.52v6.26h6.26v6.26h-6.26v6.26h-18.78v-18.78h6.26v-6.26h-12.52v-6.26h-6.26v-6.26h-6.26v-6.26h6.26v6.26h6.26v-12.52h-12.52v-6.26h6.26v-6.26h6.26v-6.26h6.26v6.26h12.52v-12.52h6.26v-6.26h6.26v-6.26h-12.52v6.26h-6.26v6.26h-6.26v-6.26h6.26v-6.26h-6.26v-6.26h6.26v6.26h6.26v-12.52h-6.26v-6.26h-6.26v-6.26h6.26v6.26h6.26v-18.78h6.26v-12.52h6.26v-6.26h6.26v3.13ZM1288.64,115.01v6.26h-6.26v-12.52h6.26v6.26ZM1351.25,127.53v6.26h-6.26v-12.52h6.26v6.26ZM1332.46,143.18v3.13h-12.52v-6.26h12.52v3.13ZM1332.46,155.71v3.13h-6.26v-6.26h6.26v3.13ZM1244.81,161.97v3.13h-6.26v6.26h-6.26v-6.26h6.26v-6.26h6.26v3.13ZM1376.29,161.97v3.13h-6.26v-6.26h6.26v3.13ZM1351.25,180.75v3.13h6.26v6.26h25.04v-6.26h-6.26v-6.26h6.26v6.26h6.26v6.26h-6.26v6.26h6.26v6.26h-6.26v-6.26h-31.3v-6.26h-18.78v6.26h-6.26v-6.26h-6.26v-6.26h12.52v-6.26h18.78v3.13ZM1257.33,193.27v3.13h-6.26v-6.26h6.26v3.13ZM1238.55,199.53v3.13h-6.26v-6.26h6.26v3.13ZM1357.51,212.05v3.13h-6.26v-6.26h6.26v3.13ZM1376.29,230.84v9.39h-18.78v-18.78h18.78v9.39ZM1395.07,237.1v3.13h6.26v12.52h-6.26v-6.26h-6.26v-6.26h-6.26v-6.26h12.52v3.13ZM1357.51,249.62v3.13h-6.26v-6.26h6.26v3.13ZM1382.55,249.62v3.13h-18.78v-6.26h18.78v3.13Z"/>
        <path d="M1307.42,111.88v3.13h-6.26v6.26h12.52v-12.52h-6.26v3.13Z"/>
        <path d="M1276.12,187.01v3.13h6.26v-6.26h-6.26v3.13Z"/>
        <path d="M1288.64,199.53v3.13h-12.52v6.26h12.52v6.26h6.26v6.26h6.26v-12.52h-12.52v-6.26h6.26v-6.26h-6.26v3.13Z"/>
        <path d="M1363.77,230.84v3.13h6.26v-6.26h-6.26v3.13Z"/>
        <path d="M1363.77,111.88v21.91h43.83v-43.83h-43.83v21.91ZM1401.33,111.88v15.65h-31.3v-31.3h31.3v15.65Z"/>
        <path d="M1376.29,111.88v9.39h18.78v-18.78h-18.78v9.39Z"/>
        <path d="M1401.33,187.01v3.13h6.26v-6.26h-6.26v3.13Z"/>
        <path d="M1238.55,218.31v3.13h6.26v-6.26h-6.26v3.13Z"/>
        <path d="M1251.07,218.31v3.13h6.26v-6.26h-6.26v3.13Z"/>
        <path d="M1226.03,249.62v21.91h43.83v-43.83h-43.83v21.91ZM1263.59,249.62v15.65h-31.3v-31.3h31.3v15.65Z"/>
        <path d="M1238.55,249.62v9.39h18.78v-18.78h-18.78v9.39Z"/>
        <path d="M1332.46,268.4v3.13h6.26v-6.26h-6.26v3.13Z"/>
      </g>
    </g>
  </g>
</svg>